<?xml version="1.0"?><svg xmlns="http://www.w3.org/2000/svg"  viewBox="0 0 24 24" width="48px" height="48px">    <path d="M 5 3 C 4.4777778 3 3.9453899 3.1913289 3.5683594 3.5683594 C 3.1913289 3.9453899 3 4.4777778 3 5 L 3 14 C 3 14.522222 3.1913289 15.05461 3.5683594 15.431641 C 3.9453899 15.808671 4.4777778 16 5 16 L 8 16 L 8 19 C 8 20.1 8.9 21 10 21 L 19 21 C 20.1 21 21 20.1 21 19 L 21 10 C 21 8.9 20.1 8 19 8 L 16 8 L 16 5 C 16 4.4777778 15.808671 3.9453899 15.431641 3.5683594 C 15.05461 3.1913289 14.522222 3 14 3 L 5 3 z M 19.572266 3.0058594 C 19.503219 3.0179375 19.436156 3.0499219 19.378906 3.1074219 L 17.742188 4.7421875 C 17.600188 4.8841875 17.600188 5.1158125 17.742188 5.2578125 L 19.378906 6.8925781 C 19.607906 7.1215781 20 6.9597656 20 6.6347656 L 20 3.3652344 C 20 3.1214844 19.779406 2.969625 19.572266 3.0058594 z M 5 5 L 14 5 L 14 9 L 9 14 L 5 14 L 5 5 z M 9.4921875 5.9921875 A 0.50005 0.50005 0 0 0 9 6.5 L 9 7 L 7.5 7 A 0.50005 0.50005 0 1 0 7.5 8 L 9.4199219 8 A 0.50005 0.50005 0 0 0 9.5820312 8 L 10.951172 8 C 10.841193 8.9464376 10.447406 9.6459145 9.8847656 10.134766 C 9.7299807 10.269251 9.5610303 10.384924 9.3847656 10.488281 C 8.8639062 10.200815 8.295194 9.7914238 7.9160156 9.2226562 A 0.50005 0.50005 0 0 0 7.4941406 8.9941406 A 0.50005 0.50005 0 0 0 7.0839844 9.7773438 C 7.4004061 10.251976 7.7949551 10.624863 8.1992188 10.927734 C 7.9658895 10.972149 7.7312253 11 7.5 11 A 0.50005 0.50005 0 1 0 7.5 12 C 8.1248778 12 8.7611416 11.859575 9.359375 11.605469 C 9.9282582 11.861658 10.378906 11.984375 10.378906 11.984375 A 0.50005 0.50005 0 1 0 10.621094 11.015625 C 10.621094 11.015625 10.514225 10.981069 10.445312 10.958984 C 10.475953 10.933819 10.51096 10.916739 10.541016 10.890625 C 11.384629 10.157649 11.965969 9.0335788 11.994141 7.6054688 A 0.50005 0.50005 0 0 0 11.943359 7.2597656 A 0.50005 0.50005 0 0 0 11.941406 7.2539062 A 0.50005 0.50005 0 0 0 11.886719 7.1757812 A 0.50005 0.50005 0 0 0 11.884766 7.171875 A 0.50005 0.50005 0 0 0 11.853516 7.1386719 A 0.50005 0.50005 0 0 0 11.849609 7.1367188 A 0.50005 0.50005 0 0 0 11.816406 7.1054688 A 0.50005 0.50005 0 0 0 11.492188 6.9921875 A 0.50005 0.50005 0 0 0 11.417969 7 L 10 7 L 10 6.5 A 0.50005 0.50005 0 0 0 9.4921875 5.9921875 z M 14.5 11.099609 L 15 11.099609 C 15.318 11.131609 15.465828 11.291 15.548828 11.5 L 17.789062 17.503906 C 17.860063 17.686906 17.795391 17.798781 17.525391 17.800781 L 16.691406 17.800781 C 16.519406 17.800781 16.367313 17.685531 16.320312 17.519531 L 16 16.400391 L 13.599609 16.400391 L 13.191406 17.544922 C 13.136406 17.698922 12.992125 17.800781 12.828125 17.800781 L 11.988281 17.800781 C 11.746281 17.816781 11.633797 17.727328 11.716797 17.486328 L 13.951172 11.5 C 14.063172 11.236 14.243 11.097609 14.5 11.099609 z M 14.800781 12.800781 L 13.900391 15.300781 L 15.599609 15.300781 L 14.800781 12.800781 z M 4.4277344 17.005859 C 4.2205937 16.970047 4 17.121484 4 17.365234 L 4 20.634766 C 4 20.959766 4.3920937 21.122578 4.6210938 20.892578 L 6.2578125 19.257812 C 6.3998125 19.115813 6.3998125 18.884187 6.2578125 18.742188 L 4.6210938 17.107422 C 4.5638438 17.050172 4.4967812 17.017797 4.4277344 17.005859 z"/></svg>