<svg xmlns="http://www.w3.org/2000/svg" xmlns:xlink="http://www.w3.org/1999/xlink" viewBox="0,0,256,256" width="48px" height="48px" fill-rule="nonzero"><g fill="none" fill-rule="nonzero" stroke="none" stroke-width="1" stroke-linecap="butt" stroke-linejoin="miter" stroke-miterlimit="10" stroke-dasharray="" stroke-dashoffset="0" font-family="none" font-weight="none" font-size="none" text-anchor="none" style="mix-blend-mode: normal"><g transform="scale(5.33333,5.33333)"><path d="M24,4c-8.579,0 -15.875,5.412 -18.716,13h37.431c-2.84,-7.588 -10.136,-13 -18.715,-13z" fill="#f2f5f9"></path><path d="M44,24c0,-2.467 -0.468,-4.818 -1.284,-7h-37.432c-0.816,2.182 -1.284,4.533 -1.284,7c0,2.467 0.468,4.818 1.284,7h37.431c0.817,-2.182 1.285,-4.533 1.285,-7z" fill="#46b94f"></path><path d="M42.716,31h-37.432c2.841,7.588 10.137,13 18.716,13c8.579,0 15.875,-5.412 18.716,-13z" fill="#e63d52"></path></g></g></svg>