<svg xmlns="http://www.w3.org/2000/svg" xmlns:xlink="http://www.w3.org/1999/xlink" viewBox="0,0,256,256" width="48px" height="48px" fill-rule="nonzero"><g fill="none" fill-rule="nonzero" stroke="none" stroke-width="1" stroke-linecap="butt" stroke-linejoin="miter" stroke-miterlimit="10" stroke-dasharray="" stroke-dashoffset="0" font-family="none" font-weight="none" font-size="none" text-anchor="none" style="mix-blend-mode: normal"><g transform="scale(5.33333,5.33333)"><circle cx="24" cy="24" r="20" fill="#e63d52"></circle><path d="M12,18.574l1.18,3.75h3.82l-3.09,2.129l1.18,3.633l-3.09,-2.246l-3.09,2.246l1.18,-3.633l-3.09,-2.129h3.82z" fill="#f2ae34"></path><path d="M19.473,16.063l0.355,1.125h1.145l-0.926,0.637l0.355,1.09l-0.93,-0.676l-0.926,0.676l0.355,-1.09l-0.93,-0.637h1.148z" fill="#f2ae34"></path><path d="M19.5,29.086l0.355,1.125h1.145l-0.926,0.637l0.352,1.09l-0.926,-0.672l-0.926,0.672l0.352,-1.09l-0.926,-0.637h1.145z" fill="#f2ae34"></path><path d="M23.5,20.086l0.355,1.125h1.145l-0.926,0.637l0.352,1.09l-0.926,-0.672l-0.926,0.672l0.352,-1.09l-0.926,-0.637h1.145z" fill="#f2ae34"></path><path d="M23.5,25.086l0.355,1.125h1.145l-0.926,0.637l0.352,1.09l-0.926,-0.672l-0.926,0.672l0.352,-1.09l-0.926,-0.637h1.145z" fill="#f2ae34"></path></g></g></svg>