<svg xmlns="http://www.w3.org/2000/svg" xmlns:xlink="http://www.w3.org/1999/xlink" viewBox="0,0,256,256" width="48px" height="48px" fill-rule="nonzero"><g fill="none" fill-rule="nonzero" stroke="none" stroke-width="1" stroke-linecap="butt" stroke-linejoin="miter" stroke-miterlimit="10" stroke-dasharray="" stroke-dashoffset="0" font-family="none" font-weight="none" font-size="none" text-anchor="none" style="mix-blend-mode: normal"><g transform="scale(5.33333,5.33333)"><path d="M24,4c-8.579,0 -15.875,5.412 -18.716,13h37.431c-2.84,-7.588 -10.136,-13 -18.715,-13z" fill="#e63d52"></path><path d="M44,24c0,-2.467 -0.468,-4.818 -1.284,-7h-37.432c-0.816,2.182 -1.284,4.533 -1.284,7c0,2.467 0.468,4.818 1.284,7h37.431c0.817,-2.182 1.285,-4.533 1.285,-7z" fill="#f2f5f9"></path><path d="M42.716,31h-37.432c2.841,7.588 10.137,13 18.716,13c8.579,0 15.875,-5.412 18.716,-13z" fill="#374399"></path><path d="M24,32.848c-3.121,0 -5.66,-2.539 -5.66,-5.66v-6.84h11.32v6.84c0,3.121 -2.539,5.66 -5.66,5.66z" fill="#f2f5f9"></path><path d="M29.41,20.598v6.59c0,2.984 -2.426,5.41 -5.41,5.41c-2.984,0 -5.41,-2.426 -5.41,-5.41v-6.59h10.82M29.91,20.098h-11.82v7.09c0,3.266 2.645,5.91 5.91,5.91c3.265,0 5.91,-2.645 5.91,-5.91z" fill="#e63d52"></path><path d="M27.371,20.434h2.238v2.453h-2.238z" fill="#e63d52"></path><path d="M22.891,20.434h2.234v2.453h-2.234z" fill="#e63d52"></path><path d="M18.406,20.434h2.238v2.453h-2.238z" fill="#e63d52"></path><path d="M27.371,25.359h2.238v2.457h-2.238z" fill="#e63d52"></path><path d="M22.891,25.359h2.234v2.457h-2.234z" fill="#e63d52"></path><path d="M18.406,25.359h2.238v2.457h-2.238z" fill="#e63d52"></path><path d="M27.371,31.625c0.734,-0.555 1.121,-1.125 1.27,-1.34h-1.27z" fill="#e63d52"></path><path d="M20.641,31.625c-0.734,-0.555 -1.117,-1.125 -1.266,-1.34h1.266z" fill="#e63d52"></path><path d="M22.891,32.645c0,0 0.398,0.109 1.121,0.109c0.723,0 1.113,0 1.113,0v-2.469h-2.234z" fill="#e63d52"></path><path d="M25.129,27.816h2.238v2.457h-2.238z" fill="#e63d52"></path><path d="M20.645,27.816h2.238v2.457h-2.238z" fill="#e63d52"></path><path d="M25.129,22.887h2.238v2.457h-2.238z" fill="#e63d52"></path><path d="M20.645,22.887h2.238v2.457h-2.238z" fill="#e63d52"></path><path d="M18.727,20.086l-1.227,-2.773l0.906,-1.48l1.625,0.605l0.746,2.934c0,-0.001 -1.156,0.3 -2.05,0.714z" fill="#00bae7"></path><path d="M22.91,19.023l-0.242,-3.023l-1.504,-0.867l-1.137,1.305l0.75,2.93c0.004,-0.001 1.188,-0.29 2.133,-0.345z" fill="#374399"></path><path d="M25.094,19.023l0.242,-3.023l1.504,-0.867l1.133,1.305l-0.75,2.93c0,-0.001 -1.184,-0.29 -2.129,-0.345z" fill="#374399"></path><path d="M25.094,19.023l0.242,-3.023l-1.332,-1.098l-1.336,1.098l0.242,3.023c0,0 1.332,-0.105 2.184,0z" fill="#00bae7"></path><path d="M29.273,20.086l1.227,-2.773l-0.906,-1.48l-1.625,0.605l-0.746,2.934c0,-0.001 1.156,0.3 2.05,0.714z" fill="#00bae7"></path><path d="M29.273,20.086l1.227,-2.773l-0.906,-1.48l-1.625,0.605l-0.746,2.934c0,-0.001 1.156,0.3 2.05,0.714z" fill="#00bae7"></path><path d="M20.219,17.176c1.578,-0.352 2.07,-0.398 2.508,-0.43l-0.059,-0.746l-0.004,-0.004c-0.285,0.016 -1.262,0.094 -2.633,0.441z" fill="#e63d52"></path><path d="M22.852,18.27l-0.063,-0.762c-0.914,0.047 -2.105,0.324 -2.383,0.395l0.191,0.754c0.946,-0.274 1.864,-0.36 2.255,-0.387z" fill="#e63d52"></path><path d="M27.41,18.645c1,0.258 1.785,0.582 2.168,0.754l0.473,-1.066c-1.086,-0.508 -2.121,-0.773 -2.352,-0.828z" fill="#f2f5f9"></path><path d="M27.461,18.438c0.297,0.066 1.105,0.277 2.199,0.773l0.313,-0.703c-0.266,-0.117 -1.383,-0.59 -2.324,-0.809z" fill="#e63d52"></path></g></g></svg>