<svg xmlns="http://www.w3.org/2000/svg" xmlns:xlink="http://www.w3.org/1999/xlink" viewBox="0,0,256,256" width="48px" height="48px" fill-rule="nonzero"><g fill="none" fill-rule="nonzero" stroke="none" stroke-width="1" stroke-linecap="butt" stroke-linejoin="miter" stroke-miterlimit="10" stroke-dasharray="" stroke-dashoffset="0" font-family="none" font-weight="none" font-size="none" text-anchor="none" style="mix-blend-mode: normal"><g transform="scale(5.33333,5.33333)"><path d="M19,4.656c-4.055,1.046 -7.612,3.316 -10.243,6.413l10.243,6.262z" fill="#374399"></path><path d="M8.605,36.764c2.644,3.185 6.265,5.515 10.395,6.581v-12.935z" fill="#374399"></path><path d="M4.656,29c0.013,0.052 0.026,0.103 0.04,0.155l0.252,-0.155z" fill="#f2f5f9"></path><path d="M39.576,11.469c-2.66,-3.301 -6.348,-5.723 -10.576,-6.813v13.277z" fill="#374399"></path><path d="M29,43.344c4.303,-1.11 8.041,-3.603 10.711,-6.994l-10.711,-6.546z" fill="#374399"></path><path d="M4.753,18.621c-0.035,0.125 -0.065,0.253 -0.097,0.379h0.717z" fill="#f2f5f9"></path><path d="M43.751,21c-0.095,-0.63 -0.218,-1.249 -0.37,-1.858l-3.039,1.858z" fill="#f2f5f9"></path><path d="M5.373,19h-0.717c-0.169,0.655 -0.304,1.321 -0.407,2h4.396z" fill="#f2f5f9"></path><path d="M43.44,28.629c0.127,-0.535 0.228,-1.079 0.311,-1.629h-2.977z" fill="#f2f5f9"></path><path d="M8.22,27h-3.971c0.102,0.679 0.238,1.345 0.407,2h0.293z" fill="#f2f5f9"></path><path d="M21,18.553v-14.304c-0.679,0.102 -1.345,0.238 -2,0.407v12.675z" fill="#f2f5f9"></path><path d="M27,28.582v15.169c0.679,-0.102 1.345,-0.238 2,-0.407v-13.54z" fill="#f2f5f9"></path><path d="M19,30.41v12.934c0.655,0.169 1.321,0.304 2,0.407v-14.563z" fill="#f2f5f9"></path><path d="M27.185,18.694l0.284,0.174l1.531,-0.936v-13.276c-0.655,-0.169 -1.321,-0.304 -2,-0.407v14.748z" fill="#f2f5f9"></path><path d="M8.645,21h9.39l2.965,-1.812v-0.634l-2,-1.223l-10.243,-6.262c-0.854,1.006 -1.613,2.094 -2.258,3.257l7.551,4.674h-5.456l-3.293,-2.047c-0.206,0.546 -0.39,1.101 -0.549,1.668l0.621,0.379z" fill="#f2f5f9"></path><path d="M27.469,18.868l3.488,2.132h9.385l3.039,-1.858c-0.325,-1.3 -0.775,-2.547 -1.341,-3.732l-5.762,3.59h-5.456l9.812,-6.1c-0.331,-0.494 -0.687,-0.969 -1.059,-1.431l-10.575,6.463z" fill="#f2f5f9"></path><path d="M14.05,19l-7.55,-4.674c-0.465,0.839 -0.856,1.72 -1.198,2.627l3.292,2.047z" fill="#e63d52"></path><path d="M36.278,19l5.763,-3.59c-0.415,-0.87 -0.874,-1.714 -1.406,-2.509l-9.813,6.099z" fill="#e63d52"></path><path d="M27,27v1.582l2,1.222l10.711,6.547c0.772,-0.981 1.456,-2.033 2.036,-3.15l-6.776,-4.201h5.456l2.459,1.534c0.215,-0.622 0.4,-1.256 0.553,-1.904l-2.665,-1.63z" fill="#f2f5f9"></path><path d="M30.957,21l-3.488,-2.132l-0.284,-0.174l-0.185,0.303v2.003z" fill="#f2f5f9"></path><path d="M21,29.188v-2.188h-12.78l-3.272,2l-0.253,0.155c0.352,1.321 0.832,2.587 1.433,3.786l6.201,-3.941h5.456l-10.182,6.433c0.318,0.456 0.648,0.904 1.002,1.331l10.395,-6.354z" fill="#f2f5f9"></path><path d="M18.035,21h2.965v-1.812z" fill="#f2f5f9"></path><path d="M34.971,29l6.775,4.2c0.444,-0.854 0.821,-1.746 1.14,-2.667l-2.459,-1.533z" fill="#e63d52"></path><path d="M12.329,29l-6.201,3.941c0.435,0.868 0.923,1.702 1.475,2.492l10.182,-6.433z" fill="#e63d52"></path><path d="M30.957,21h-3.957v6h13.774h2.977c0.148,-0.981 0.249,-1.978 0.249,-3c0,-1.022 -0.101,-2.019 -0.249,-3h-3.409z" fill="#e63d52"></path><path d="M21,27v-6h-2.965h-9.39h-4.396c-0.148,0.981 -0.249,1.978 -0.249,3c0,1.022 0.101,2.019 0.249,3h3.971z" fill="#e63d52"></path><path d="M27,43.751v-15.169v-1.582v-6v-2.003v-14.748c-0.981,-0.148 -1.978,-0.249 -3,-0.249c-1.022,0 -2.019,0.101 -3,0.249v14.304v0.634v1.813v6v2.188v14.563c0.981,0.148 1.978,0.249 3,0.249c1.022,0 2.019,-0.101 3,-0.249z" fill="#e63d52"></path></g></g></svg>