<svg xmlns="http://www.w3.org/2000/svg" xmlns:xlink="http://www.w3.org/1999/xlink" viewBox="0,0,256,256" width="48px" height="48px" fill-rule="nonzero"><g fill="none" fill-rule="nonzero" stroke="none" stroke-width="1" stroke-linecap="butt" stroke-linejoin="miter" stroke-miterlimit="10" stroke-dasharray="" stroke-dashoffset="0" font-family="none" font-weight="none" font-size="none" text-anchor="none" style="mix-blend-mode: normal"><g transform="scale(5.33333,5.33333)"><path d="M26,13h14.695c-1.275,-1.931 -2.883,-3.615 -4.731,-5h-9.964z" fill="#f2f5f9"></path><path d="M26,22h17.899c-0.173,-1.746 -0.59,-3.416 -1.183,-5h-16.716z" fill="#f2f5f9"></path><path d="M43.899,26h-17.899h-1h-8h-4h-8.899c0.173,1.746 0.59,3.416 1.183,5h37.431c0.594,-1.584 1.011,-3.254 1.184,-5z" fill="#f2f5f9"></path><path d="M40.695,35h-33.39c1.275,1.931 2.883,3.615 4.731,5h23.927c1.849,-1.385 3.457,-3.069 4.732,-5z" fill="#f2f5f9"></path><path d="M35.964,8c-2.837,-2.125 -6.244,-3.53 -9.964,-3.899v3.899z" fill="#3b72d4"></path><path d="M26,17h16.716c-0.529,-1.415 -1.201,-2.758 -2.021,-4h-14.695z" fill="#3b72d4"></path><path d="M26,26h17.899c0.065,-0.658 0.101,-1.325 0.101,-2c0,-0.675 -0.036,-1.342 -0.101,-2h-17.899z" fill="#3b72d4"></path><path d="M42.716,31h-37.432c0.529,1.415 1.201,2.758 2.021,4h33.39c0.82,-1.242 1.491,-2.585 2.021,-4z" fill="#3b72d4"></path><path d="M13,17h-7.716c-0.816,2.182 -1.284,4.533 -1.284,7c0,0.675 0.036,1.342 0.101,2h8.899z" fill="#3b72d4"></path><path d="M13,7.305c-2.262,1.494 -4.201,3.433 -5.695,5.695h5.695z" fill="#3b72d4"></path><path d="M26,17h-1h-8v9h8h1v-4z" fill="#3b72d4"></path><path d="M25,13h1v-5v-3.899c-0.658,-0.065 -1.325,-0.101 -2,-0.101c-2.467,0 -4.818,0.468 -7,1.284v7.716z" fill="#3b72d4"></path><path d="M35.964,40h-23.928c3.339,2.501 7.471,4 11.964,4c4.493,0 8.625,-1.499 11.964,-4z" fill="#3b72d4"></path><path d="M13,26h4v-9h8h1v-4h-1h-8v-7.716c-1.415,0.529 -2.758,1.201 -4,2.021v5.695h-5.695c-0.82,1.242 -1.491,2.585 -2.021,4h7.716z" fill="#f2f5f9"></path></g></g></svg>