<svg xmlns="http://www.w3.org/2000/svg" xmlns:xlink="http://www.w3.org/1999/xlink" viewBox="0,0,256,256" width="48px" height="48px" fill-rule="nonzero"><g fill="none" fill-rule="nonzero" stroke="none" stroke-width="1" stroke-linecap="butt" stroke-linejoin="miter" stroke-miterlimit="10" stroke-dasharray="" stroke-dashoffset="0" font-family="none" font-weight="none" font-size="none" text-anchor="none" style="mix-blend-mode: normal"><g transform="scale(5.33333,5.33333)"><path d="M44,24c0,-2.467 -0.468,-4.818 -1.284,-7h-37.432c-0.816,2.182 -1.284,4.533 -1.284,7c0,2.467 0.468,4.818 1.284,7h37.431c0.817,-2.182 1.285,-4.533 1.285,-7z" fill="#f2f5f9"></path><path d="M24,19c-2.762,0 -5,2.238 -5,5c0,2.762 2.238,5 5,5c2.762,0 5,-2.238 5,-5c0,-2.762 -2.238,-5 -5,-5zM24,28.376c-2.418,0 -4.376,-1.958 -4.376,-4.376c0,-2.418 1.958,-4.376 4.376,-4.376c2.418,0 4.376,1.958 4.376,4.376c0,2.418 -1.958,4.376 -4.376,4.376z" fill="#4958bf"></path><path d="M24.874,24c0,0.485 -0.39,0.874 -0.874,0.874c-0.484,0 -0.874,-0.39 -0.874,-0.874c0,-0.484 0.39,-0.874 0.874,-0.874c0.484,0 0.874,0.389 0.874,0.874z" fill="#4958bf"></path><path d="M28.371,24.355c-0.12,-0.015 -0.23,0.065 -0.245,0.185c-0.015,0.12 0.065,0.23 0.185,0.245c0.12,0.02 0.23,-0.065 0.245,-0.185c0.019,-0.12 -0.065,-0.23 -0.185,-0.245z" fill="#4958bf"></path><path d="M24,28.376l0.15,-2.627l-0.15,-1.249l-0.15,1.249z" fill="#4958bf"></path><path d="M28.131,25.474c-0.115,-0.045 -0.24,0.005 -0.29,0.12c-0.045,0.11 0.01,0.24 0.12,0.285c0.11,0.045 0.24,-0.005 0.285,-0.12c0.05,-0.111 -0.005,-0.241 -0.115,-0.285z" fill="#4958bf"></path><path d="M22.866,28.226l0.824,-2.498l0.18,-1.244l-0.47,1.169z" fill="#4958bf"></path><path d="M27.606,26.493c-0.095,-0.075 -0.23,-0.06 -0.305,0.04c-0.075,0.095 -0.055,0.23 0.04,0.305c0.095,0.075 0.235,0.055 0.305,-0.04c0.075,-0.096 0.055,-0.236 -0.04,-0.305z" fill="#4958bf"></path><path d="M21.812,27.791l1.444,-2.203l0.495,-1.154l-0.754,1.009z" fill="#4958bf"></path><path d="M26.842,27.337c-0.075,-0.095 -0.215,-0.11 -0.31,-0.04c-0.095,0.075 -0.115,0.215 -0.04,0.31c0.075,0.095 0.21,0.115 0.305,0.04c0.1,-0.076 0.115,-0.21 0.045,-0.31z" fill="#4958bf"></path><path d="M20.903,27.097l1.963,-1.753l0.779,-0.989l-0.989,0.779z" fill="#4958bf"></path><path d="M25.878,27.956c-0.045,-0.11 -0.175,-0.16 -0.285,-0.115c-0.11,0.045 -0.165,0.175 -0.12,0.285c0.05,0.11 0.175,0.165 0.285,0.12c0.115,-0.05 0.165,-0.175 0.12,-0.29z" fill="#4958bf"></path><path d="M20.209,26.188l2.348,-1.184l1.009,-0.754l-1.154,0.495z" fill="#4958bf"></path><path d="M24.789,28.311c-0.015,-0.12 -0.125,-0.205 -0.245,-0.19c-0.12,0.02 -0.205,0.13 -0.19,0.25c0.02,0.12 0.13,0.2 0.25,0.185c0.12,-0.016 0.2,-0.125 0.185,-0.245z" fill="#4958bf"></path><path d="M19.774,25.134l2.572,-0.534l1.169,-0.47l-1.244,0.18z" fill="#4958bf"></path><path d="M23.456,28.126c-0.12,-0.02 -0.23,0.065 -0.245,0.185c-0.015,0.12 0.07,0.23 0.19,0.245c0.12,0.02 0.23,-0.065 0.245,-0.185c0.014,-0.12 -0.071,-0.23 -0.19,-0.245z" fill="#4958bf"></path><path d="M19.624,24l2.627,0.15l1.249,-0.15l-1.249,-0.15z" fill="#4958bf"></path><path d="M22.412,27.841c-0.11,-0.045 -0.24,0.01 -0.285,0.12c-0.05,0.11 0.005,0.24 0.115,0.285c0.115,0.045 0.24,-0.005 0.29,-0.115c0.044,-0.115 -0.011,-0.24 -0.12,-0.29z" fill="#4958bf"></path><path d="M19.774,22.866l2.498,0.824l1.244,0.18l-1.169,-0.47z" fill="#4958bf"></path><path d="M21.473,27.297c-0.095,-0.07 -0.235,-0.055 -0.305,0.04c-0.075,0.1 -0.06,0.235 0.04,0.31c0.095,0.07 0.23,0.055 0.305,-0.04c0.074,-0.101 0.054,-0.235 -0.04,-0.31z" fill="#4958bf"></path><path d="M20.209,21.812l2.203,1.444l1.154,0.495l-1.009,-0.754z" fill="#4958bf"></path><path d="M20.703,26.532c-0.075,-0.095 -0.21,-0.115 -0.305,-0.04c-0.095,0.07 -0.115,0.21 -0.04,0.305c0.07,0.095 0.21,0.115 0.305,0.04c0.095,-0.075 0.115,-0.21 0.04,-0.305z" fill="#4958bf"></path><path d="M20.903,20.903l1.753,1.963l0.989,0.779l-0.779,-0.989z" fill="#4958bf"></path><path d="M20.159,25.588c-0.045,-0.11 -0.175,-0.165 -0.285,-0.115c-0.11,0.045 -0.165,0.175 -0.12,0.285c0.05,0.11 0.175,0.165 0.29,0.12c0.11,-0.05 0.165,-0.175 0.115,-0.29z" fill="#4958bf"></path><path d="M21.812,20.209l1.184,2.348l0.754,1.009l-0.495,-1.154z" fill="#4958bf"></path><path d="M19.879,24.539c-0.02,-0.12 -0.13,-0.2 -0.245,-0.185c-0.12,0.015 -0.205,0.125 -0.19,0.245c0.015,0.12 0.125,0.205 0.245,0.185c0.12,-0.015 0.205,-0.125 0.19,-0.245z" fill="#4958bf"></path><path d="M22.866,19.774l0.534,2.572l0.47,1.169l-0.18,-1.244z" fill="#4958bf"></path><path d="M19.689,23.211c-0.12,-0.015 -0.23,0.07 -0.245,0.19c-0.015,0.12 0.07,0.23 0.19,0.245c0.12,0.015 0.23,-0.07 0.245,-0.19c0.015,-0.12 -0.07,-0.23 -0.19,-0.245z" fill="#4958bf"></path><path d="M24,19.624l-0.15,2.627l0.15,1.249l0.15,-1.249z" fill="#4958bf"></path><path d="M20.039,22.122c-0.11,-0.045 -0.24,0.01 -0.285,0.12c-0.045,0.11 0.005,0.24 0.12,0.285c0.11,0.045 0.24,-0.005 0.285,-0.12c0.045,-0.11 -0.01,-0.24 -0.12,-0.285z" fill="#4958bf"></path><path d="M25.134,19.774l-0.824,2.498l-0.18,1.244l0.47,-1.169z" fill="#4958bf"></path><path d="M20.663,21.163c-0.1,-0.075 -0.235,-0.06 -0.31,0.04c-0.07,0.095 -0.055,0.23 0.04,0.305c0.1,0.075 0.235,0.055 0.31,-0.04c0.07,-0.095 0.055,-0.235 -0.04,-0.305z" fill="#4958bf"></path><path d="M26.188,20.209l-1.444,2.203l-0.495,1.154l0.754,-1.009z" fill="#4958bf"></path><path d="M21.512,20.394c-0.075,-0.095 -0.21,-0.115 -0.305,-0.04c-0.1,0.075 -0.115,0.21 -0.045,0.31c0.075,0.095 0.215,0.11 0.31,0.04c0.095,-0.076 0.115,-0.215 0.04,-0.31z" fill="#4958bf"></path><path d="M27.097,20.903l-1.963,1.753l-0.779,0.989l0.989,-0.779z" fill="#4958bf"></path><path d="M22.526,19.874c-0.045,-0.11 -0.175,-0.165 -0.285,-0.115c-0.11,0.045 -0.165,0.17 -0.12,0.285c0.045,0.11 0.175,0.165 0.285,0.115c0.115,-0.045 0.165,-0.17 0.12,-0.285z" fill="#4958bf"></path><path d="M27.791,21.812l-2.348,1.184l-1.009,0.754l1.154,-0.495z" fill="#4958bf"></path><path d="M23.645,19.629c-0.015,-0.12 -0.125,-0.2 -0.245,-0.185c-0.12,0.015 -0.205,0.125 -0.19,0.245c0.015,0.12 0.125,0.205 0.245,0.185c0.12,-0.015 0.205,-0.125 0.19,-0.245z" fill="#4958bf"></path><path d="M28.226,22.866l-2.572,0.534l-1.169,0.47l1.244,-0.18z" fill="#4958bf"></path><path d="M24.599,19.445c-0.12,-0.015 -0.23,0.07 -0.245,0.19c-0.015,0.12 0.07,0.23 0.19,0.245c0.12,0.015 0.23,-0.07 0.245,-0.19c0.015,-0.121 -0.07,-0.23 -0.19,-0.245z" fill="#4958bf"></path><path d="M28.376,24l-2.627,-0.15l-1.249,0.15l1.249,0.15z" fill="#4958bf"></path><path d="M25.758,19.754c-0.11,-0.05 -0.24,0.005 -0.285,0.115c-0.045,0.115 0.005,0.24 0.115,0.285c0.115,0.05 0.24,-0.005 0.29,-0.115c0.045,-0.115 -0.01,-0.24 -0.12,-0.285z" fill="#4958bf"></path><path d="M28.226,25.134l-2.498,-0.824l-1.244,-0.18l1.169,0.47z" fill="#4958bf"></path><path d="M26.797,20.354c-0.095,-0.07 -0.23,-0.055 -0.305,0.04c-0.075,0.1 -0.055,0.235 0.04,0.31c0.095,0.07 0.235,0.055 0.31,-0.04c0.07,-0.101 0.055,-0.235 -0.045,-0.31z" fill="#4958bf"></path><path d="M27.791,26.188l-2.203,-1.444l-1.154,-0.495l1.009,0.754z" fill="#4958bf"></path><path d="M27.646,21.203c-0.075,-0.095 -0.215,-0.115 -0.31,-0.04c-0.095,0.075 -0.115,0.21 -0.04,0.305c0.075,0.095 0.21,0.115 0.31,0.04c0.095,-0.07 0.11,-0.21 0.04,-0.305z" fill="#4958bf"></path><path d="M27.097,27.097l-1.753,-1.963l-0.989,-0.779l0.779,0.989z" fill="#4958bf"></path><path d="M28.246,22.242c-0.05,-0.11 -0.175,-0.165 -0.285,-0.12c-0.115,0.05 -0.165,0.175 -0.12,0.285c0.045,0.115 0.175,0.165 0.285,0.12c0.11,-0.045 0.165,-0.175 0.12,-0.285z" fill="#4958bf"></path><path d="M26.188,27.791l-1.184,-2.348l-0.754,-1.009l0.495,1.154z" fill="#4958bf"></path><path d="M28.555,23.401c-0.015,-0.12 -0.125,-0.205 -0.245,-0.19c-0.12,0.02 -0.205,0.125 -0.185,0.245c0.015,0.12 0.125,0.205 0.245,0.19c0.121,-0.016 0.205,-0.126 0.185,-0.245z" fill="#4958bf"></path><path d="M25.134,28.226l-0.534,-2.572l-0.47,-1.169l0.18,1.244z" fill="#4958bf"></path><path d="M42.716,31h-37.432c2.841,7.588 10.137,13 18.716,13c8.579,0 15.875,-5.412 18.716,-13z" fill="#489b51"></path><path d="M24,4c-8.579,0 -15.875,5.412 -18.716,13h37.431c-2.84,-7.588 -10.136,-13 -18.715,-13z" fill="#f95740"></path></g></g></svg>