<svg xmlns="http://www.w3.org/2000/svg" xmlns:xlink="http://www.w3.org/1999/xlink" viewBox="0,0,256,256" width="48px" height="48px" fill-rule="nonzero"><g fill="none" fill-rule="nonzero" stroke="none" stroke-width="1" stroke-linecap="butt" stroke-linejoin="miter" stroke-miterlimit="10" stroke-dasharray="" stroke-dashoffset="0" font-family="none" font-weight="none" font-size="none" text-anchor="none" style="mix-blend-mode: normal"><g transform="scale(5.33333,5.33333)"><path d="M24,4c-2.846,0 -5.549,0.604 -8,1.675v36.649c2.451,1.072 5.154,1.676 8,1.676c2.846,0 5.549,-0.604 8,-1.675v-36.65c-2.451,-1.071 -5.154,-1.675 -8,-1.675z" fill="#f2f5f9"></path><path d="M32,5.675v36.649c7.061,-3.087 12,-10.125 12,-18.324c0,-8.199 -4.939,-15.237 -12,-18.325z" fill="#e63d52"></path><path d="M4,24c0,8.199 4.939,15.237 12,18.325v-36.65c-7.061,3.088 -12,10.126 -12,18.325z" fill="#489b51"></path></g></g></svg>