<svg xmlns="http://www.w3.org/2000/svg" xmlns:xlink="http://www.w3.org/1999/xlink" viewBox="0,0,256,256" width="48px" height="48px" fill-rule="nonzero"><g fill="none" fill-rule="nonzero" stroke="none" stroke-width="1" stroke-linecap="butt" stroke-linejoin="miter" stroke-miterlimit="10" stroke-dasharray="" stroke-dashoffset="0" font-family="none" font-weight="none" font-size="none" text-anchor="none" style="mix-blend-mode: normal"><g transform="scale(5.33333,5.33333)"><circle cx="24" cy="24" r="20" fill="#e63d52"></circle><path d="M17,5.3c-0.7,0.3 -1.4,0.5 -2,0.9v13.8h-10.6c-0.1,0.7 -0.2,1.3 -0.3,2h12.9z" fill="#f2f5f9"></path><path d="M4.1,26c0.1,0.7 0.2,1.3 0.3,2h10.6v13.8c0.6,0.3 1.3,0.6 2,0.9v-16.7z" fill="#f2f5f9"></path><path d="M43.9,22c-0.1,-0.7 -0.2,-1.3 -0.3,-2h-20.6v-15.9c-0.7,0 -1.3,0.1 -2,0.2v17.7z" fill="#f2f5f9"></path><path d="M43.6,28c0.1,-0.7 0.2,-1.3 0.3,-2h-22.9v17.8c0.7,0.1 1.3,0.2 2,0.2v-16z" fill="#f2f5f9"></path><path d="M43.9,26c0.1,-0.7 0.1,-1.3 0.1,-2c0,-0.7 0,-1.3 -0.1,-2h-22.9v-17.8c-1.4,0.2 -2.7,0.6 -4,1v16.8h-12.9c-0.1,0.7 -0.1,1.3 -0.1,2c0,0.7 0,1.3 0.1,2h12.9v16.7c1.3,0.5 2.6,0.8 4,1v-17.7z" fill="#374399"></path></g></g></svg>