<svg xmlns="http://www.w3.org/2000/svg" xmlns:xlink="http://www.w3.org/1999/xlink" viewBox="0,0,256,256" width="48px" height="48px" fill-rule="nonzero"><g fill="none" fill-rule="nonzero" stroke="none" stroke-width="1" stroke-linecap="butt" stroke-linejoin="miter" stroke-miterlimit="10" stroke-dasharray="" stroke-dashoffset="0" font-family="none" font-weight="none" font-size="none" text-anchor="none" style="mix-blend-mode: normal"><g transform="scale(5.33333,5.33333)"><circle cx="24" cy="24" r="20" fill="#f2f5f9"></circle><path d="M11.91,21.096l4.355,-6.711l0.59,0.383l-4.355,6.707z" fill="#263238"></path><path d="M8.793,28.928l0.672,-0.434l4.348,6.715l-0.668,0.434z" fill="#263238"></path><path d="M32.664,13.74l0.668,-0.434l4.426,6.781l-0.672,0.438z" fill="#263238"></path><path d="M10.344,20.127l4.355,-6.711l0.586,0.379l-4.355,6.711z" fill="#263238"></path><path d="M33.445,18.4l0.586,-0.383l2.016,3.105l-0.59,0.383z" fill="#263238"></path><path d="M36.453,31.643l2.016,-3.105l0.586,0.383l-2.016,3.102z" fill="#263238"></path><path d="M12.637,31.51l0.586,-0.379l2.016,3.102l-0.586,0.383z" fill="#263238"></path><path d="M36.559,16.416l0.586,-0.383l2.027,3.094l-0.586,0.383z" fill="#263238"></path><path d="M33.371,29.619l2.016,-3.105l0.586,0.383l-2.016,3.102z" fill="#263238"></path><path d="M34.937,30.588l2.023,-3.102l0.668,0.438l-2.02,3.102z" fill="#263238"></path><path d="M31.148,14.768l0.586,-0.383l2.027,3.094l-0.586,0.383z" fill="#263238"></path><path d="M34.105,35.221l1.996,-3.117l0.59,0.379l-2,3.113z" fill="#263238"></path><path d="M10.352,27.865l0.672,-0.434l2,3.113l-0.672,0.434z" fill="#263238"></path><path d="M34.266,12.771l0.586,-0.387l2.031,3.094l-0.586,0.383z" fill="#263238"></path><path d="M31.008,33.17l2.02,-3.098l0.672,0.438l-2.023,3.098z" fill="#263238"></path><path d="M32.535,34.24l2.004,-3.109l0.672,0.434l-2.004,3.109z" fill="#263238"></path><path d="M8.758,19.139l4.43,-6.781l0.672,0.438l-4.43,6.781z" fill="#263238"></path><path d="M11.855,26.85l0.59,-0.383l4.348,6.715l-0.586,0.383z" fill="#263238"></path><path d="M20.5,27.482c1.924,0 3.5,-1.576 3.5,-3.5c0,-1.924 1.576,-3.5 3.5,-3.5c1.924,0 3.5,1.576 3.5,3.5c0,-3.849 -3.151,-7 -7,-7c-3.849,0 -7,3.151 -7,7c0,1.925 1.576,3.5 3.5,3.5z" fill="#dc3d52"></path><path d="M27.5,20.482c-1.924,0 -3.5,1.576 -3.5,3.5c0,1.924 -1.576,3.5 -3.5,3.5c-1.924,0 -3.5,-1.576 -3.5,-3.5c0,3.849 3.151,7 7,7c3.849,0 7,-3.151 7,-7c0,-1.924 -1.576,-3.5 -3.5,-3.5z" fill="#374399"></path></g></g></svg>