<svg xmlns="http://www.w3.org/2000/svg" xmlns:xlink="http://www.w3.org/1999/xlink" viewBox="0,0,256,256" width="48px" height="48px" fill-rule="nonzero"><g fill="none" fill-rule="nonzero" stroke="none" stroke-width="1" stroke-linecap="butt" stroke-linejoin="miter" stroke-miterlimit="10" stroke-dasharray="" stroke-dashoffset="0" font-family="none" font-weight="none" font-size="none" text-anchor="none" style="mix-blend-mode: normal"><g transform="scale(5.33333,5.33333)"><path d="M16,5.675c-6.181,2.703 -10.712,8.438 -11.751,15.325h11.751z" fill="#3b72d4"></path><path d="M43.751,27h-21.751v16.899c0.658,0.065 1.325,0.101 2,0.101c10.023,0 18.3,-7.381 19.751,-17z" fill="#3b72d4"></path><path d="M4.249,27c1.039,6.887 5.57,12.622 11.751,15.325v-15.325z" fill="#3b72d4"></path><path d="M43.751,21c-1.451,-9.619 -9.728,-17 -19.751,-17c-0.675,0 -1.342,0.036 -2,0.101v16.899z" fill="#3b72d4"></path><path d="M43.751,27c0.148,-0.981 0.249,-1.978 0.249,-3c0,-1.022 -0.101,-2.019 -0.249,-3h-21.751v-16.899c-2.116,0.21 -4.13,0.757 -6,1.574v15.325h-11.751c-0.148,0.981 -0.249,1.978 -0.249,3c0,1.022 0.101,2.019 0.249,3h11.751v15.325c1.87,0.818 3.884,1.364 6,1.574v-16.899z" fill="#fdc543"></path></g></g></svg>