<svg xmlns="http://www.w3.org/2000/svg" xmlns:xlink="http://www.w3.org/1999/xlink" viewBox="0,0,256,256" width="48px" height="48px" fill-rule="nonzero"><g fill="none" fill-rule="nonzero" stroke="none" stroke-width="1" stroke-linecap="butt" stroke-linejoin="miter" stroke-miterlimit="10" stroke-dasharray="" stroke-dashoffset="0" font-family="none" font-weight="none" font-size="none" text-anchor="none" style="mix-blend-mode: normal"><g transform="scale(5.33333,5.33333)"><path d="M34,6.697v17.303h-30c0,11.046 8.954,20 20,20c11.046,0 20,-8.954 20,-20c0,-7.398 -4.028,-13.843 -10,-17.303z" fill="#e63d52"></path><path d="M34,6.697c-2.944,-1.705 -6.353,-2.697 -10,-2.697c-11.046,0 -20,8.954 -20,20h30z" fill="#374399"></path><path d="M19.817,10.085l-0.817,-4.085l-0.817,4.085c0.264,-0.055 0.537,-0.085 0.817,-0.085c0.28,0 0.553,0.03 0.817,0.085z" fill="#f2f5f9"></path><path d="M15,7.072l1.341,3.963c0.408,-0.366 0.89,-0.644 1.422,-0.819z" fill="#f2f5f9"></path><path d="M12.072,10l3.144,2.763c0.175,-0.533 0.452,-1.014 0.819,-1.422z" fill="#f2f5f9"></path><path d="M15.085,13.183l-4.085,0.817l4.085,0.817c-0.055,-0.264 -0.085,-0.537 -0.085,-0.817c0,-0.28 0.03,-0.553 0.085,-0.817z" fill="#f2f5f9"></path><path d="M12.072,18l3.963,-1.341c-0.366,-0.408 -0.644,-0.89 -0.819,-1.422z" fill="#f2f5f9"></path><path d="M15,20.928l2.763,-3.144c-0.533,-0.175 -1.014,-0.452 -1.422,-0.819z" fill="#f2f5f9"></path><path d="M18.183,17.915l0.817,4.085l0.817,-4.085c-0.264,0.055 -0.537,0.085 -0.817,0.085c-0.28,0 -0.553,-0.03 -0.817,-0.085z" fill="#f2f5f9"></path><path d="M23,20.928l-1.341,-3.963c-0.408,0.366 -0.89,0.644 -1.422,0.819z" fill="#f2f5f9"></path><path d="M25.928,18l-3.144,-2.763c-0.175,0.533 -0.452,1.014 -0.819,1.422z" fill="#f2f5f9"></path><path d="M22.915,14.817l4.085,-0.817l-4.085,-0.817c0.055,0.264 0.085,0.537 0.085,0.817c0,0.28 -0.03,0.553 -0.085,0.817z" fill="#f2f5f9"></path><path d="M25.928,10l-3.963,1.341c0.366,0.408 0.644,0.89 0.819,1.422z" fill="#f2f5f9"></path><path d="M23,7.072l-2.763,3.144c0.533,0.175 1.014,0.452 1.422,0.819z" fill="#f2f5f9"></path><circle cx="19" cy="14" r="3" fill="#f2f5f9"></circle></g></g></svg>