<svg xmlns="http://www.w3.org/2000/svg" xmlns:xlink="http://www.w3.org/1999/xlink" viewBox="0,0,256,256" width="48px" height="48px" fill-rule="nonzero"><g fill="none" fill-rule="nonzero" stroke="none" stroke-width="1" stroke-linecap="butt" stroke-linejoin="miter" stroke-miterlimit="10" stroke-dasharray="" stroke-dashoffset="0" font-family="none" font-weight="none" font-size="none" text-anchor="none" style="mix-blend-mode: normal"><g transform="scale(5.33333,5.33333)"><path d="M24,4c-5.592,0 -10.642,2.301 -14.271,6h28.543c-3.63,-3.699 -8.68,-6 -14.272,-6z" fill="#e63d52"></path><path d="M38.271,38h-28.542c3.629,3.699 8.679,6 14.271,6c5.592,0 10.642,-2.301 14.271,-6z" fill="#e63d52"></path><path d="M42.716,31h-37.432c0.989,2.642 2.505,5.024 4.444,7h28.543c1.939,-1.976 3.456,-4.358 4.445,-7z" fill="#f2f5f9"></path><path d="M38.271,10h-28.542c-1.939,1.976 -3.455,4.358 -4.444,7h37.431c-0.989,-2.642 -2.506,-5.024 -4.445,-7z" fill="#f2f5f9"></path><path d="M44,24c0,-2.467 -0.468,-4.818 -1.284,-7h-37.432c-0.816,2.182 -1.284,4.533 -1.284,7c0,2.467 0.468,4.818 1.284,7h37.431c0.817,-2.182 1.285,-4.533 1.285,-7z" fill="#374399"></path></g></g></svg>