<svg xmlns="http://www.w3.org/2000/svg" xmlns:xlink="http://www.w3.org/1999/xlink" viewBox="0,0,256,256" width="48px" height="48px" fill-rule="nonzero"><g fill="none" fill-rule="nonzero" stroke="none" stroke-width="1" stroke-linecap="butt" stroke-linejoin="miter" stroke-miterlimit="10" stroke-dasharray="" stroke-dashoffset="0" font-family="none" font-weight="none" font-size="none" text-anchor="none" style="mix-blend-mode: normal"><g transform="scale(5.33333,5.33333)"><circle cx="24" cy="24" r="20" fill="#e63d52"></circle><path d="M21.789,23.188l-0.008,-2.73l1.609,2.199l2.594,-0.848l-1.598,2.211l1.614,2.203l-2.598,-0.836l-1.594,2.215l-0.012,-2.73l-2.598,-0.832z" fill="#f2f5f9"></path><path d="M18.473,31.086c-3.898,0 -7.063,-3.16 -7.063,-7.059c0,-3.899 3.16,-7.059 7.063,-7.059c0.633,0 1.242,0.09 1.828,0.246c-1.219,-0.75 -2.648,-1.191 -4.184,-1.191c-4.418,0 -8,3.582 -8,8c0,4.418 3.582,8 8,8c1.535,0 2.965,-0.438 4.184,-1.188c-0.586,0.161 -1.196,0.251 -1.828,0.251z" fill="#f2f5f9"></path></g></g></svg>