<?xml version="1.0" encoding="utf-8"?>
<!-- Generator: Adobe Illustrator 25.4.1, SVG Export Plug-In . SVG Version: 6.00 Build 0)  -->
<svg version="1.1" id="Layer_1" xmlns="http://www.w3.org/2000/svg" xmlns:xlink="http://www.w3.org/1999/xlink" x="0px" y="0px"
	 viewBox="300 300 1400 1400" style="enable-background:new 0 0 2000 2000;" xml:space="preserve">
<style type="text/css">
	.st0{fill:transparent;}
	.st1{fill:url(#SVGID_1_);}
	.st2{fill:url(#SVGID_00000171694256783249128050000010688176423975337394_);}
	.st3{fill:url(#SVGID_00000182486342486972936220000007010326688671595658_);}
	.st4{fill:url(#SVGID_00000037650573351267043860000017867995629388760466_);}
	.st5{fill:url(#SVGID_00000114761578641973122000000015447845108635157634_);}
	.st6{fill:url(#SVGID_00000032645134174440393440000007859200814448445583_);}
	.st7{fill:url(#SVGID_00000151506577634383227950000005923458741634528900_);}
	.st8{fill:url(#SVGID_00000165199978489835563530000002871105257982529704_);}
	.st9{fill:url(#SVGID_00000080913015978404445440000005946078477725364406_);}
	.st10{fill:url(#SVGID_00000115489554660978373440000018297589228811552918_);}
	.st11{fill:url(#SVGID_00000168799097636254345170000018422781272784986021_);}
	.st12{fill:url(#SVGID_00000045578139771480637420000001597829535226935710_);}
	.st13{fill:url(#SVGID_00000008871622045650781970000011857370415259961758_);}
	.st14{fill:url(#SVGID_00000162352197246187272410000009457478642678703547_);}
	.st15{fill:url(#SVGID_00000090990465389248160570000005548874934055250091_);}
	.st16{fill:url(#SVGID_00000029046844866873546340000003076133779586105226_);}
	.st17{fill:#FFFFFF;}
	.st18{fill:url(#SVGID_00000062169287470251518140000013139575946236465824_);}
	
		.st19{fill:url(#SVGID_00000072962990796202024590000001507008126541540766_);stroke:#FFFFFF;stroke-width:2.4142;stroke-miterlimit:10;}
	
		.st20{fill:url(#SVGID_00000003072423962289739060000002924095906903430556_);stroke:#FFFFFF;stroke-width:2.4142;stroke-miterlimit:10;}
</style>
<rect x="-25" y="-29.07" class="st0" width="2050" height="2058.14"/>
<g>
	<g>
		<g>
			<g>
				<g>
					<linearGradient id="SVGID_1_" gradientUnits="userSpaceOnUse" x1="393.8124" y1="962.9772" x2="1256.4955" y2="970.7491">
						<stop  offset="0" style="stop-color:#04E0FF"/>
						<stop  offset="1" style="stop-color:#7B05FE;stop-opacity:0"/>
					</linearGradient>
					<path class="st1" d="M990.76,1196.16l-90.95,97.73l-16.21,17.46c-2.76-1.51-5.53-3.27-8.29-4.9c-4.65-2.89-9.42-5.9-13.95-9.05
						c-2.89-1.88-5.65-3.77-8.42-5.9c-8.29-6.03-16.33-12.44-24.24-19.22c-10.3-9.04-20.35-18.72-29.9-29.02
						c-0.5-0.25-0.88-0.63-1-1c-3.01-3.14-5.9-6.16-8.42-9.55c-2.89-3.14-5.53-6.53-8.16-9.8c-2.89-3.52-5.4-7.03-8.42-10.55
						c-2.39-3.27-4.65-6.53-6.91-9.92c-0.38-0.5-0.63-0.88-1.01-1.38c-0.25-0.5-0.5-1.01-0.75-1.51c-2.76-4.02-5.4-8.04-7.91-12.06
						c-3.14-5.02-6.16-10.18-9.17-15.58c-6.66-11.68-12.44-23.74-17.71-36.18c-1.63-4.15-3.26-8.42-4.9-12.56
						c-0.88-1.76-1.51-3.64-2.26-5.65c-0.13-0.38-0.25-0.63-0.25-1c-0.88-2.39-1.51-4.65-2.26-6.91c-0.13-0.38-0.25-0.63-0.38-1
						c-7.29-22.11-12.31-44.97-15.45-68.21c-0.25-0.13-0.25-0.5-0.25-0.63c-0.13-0.12-0.13-0.38,0-0.5v-0.13
						c-0.63-4.52-1.13-9.3-1.51-13.94c-0.5-4.52-0.75-9.17-1.01-13.69c-0.25-6.03-0.5-12.31-0.5-18.34
						c0-38.69,6.03-76.38,17.46-112.05c0-0.13,0.13-0.25,0.13-0.63c3.01-9.55,6.53-18.97,10.43-28.26
						c18.22-44.09,45.22-84.67,79.89-119.47c75-75.12,174.61-110.92,273.1-107.41c90.07,3.01,179.01,38.69,247.72,107.41
						c0,0,0,0-0.13,0.13c0,0-0.12,0.13-0.25,0.25c-36.68,36.56-85.55,57.91-135.8,59.8c-2.39,0.13-4.78,0.13-7.04,0.13
						c-18.34,0-36.68-2.64-54.65-8.04c-16.08-4.9-32.79-7.66-49.62-8.67c-32.91-2.01-66.58,3.64-97.61,16.71
						c-33.16,13.94-63.82,36.56-87.93,67.84c-0.88,1.13-1.63,2.39-2.51,3.52c-9.55,12.69-17.46,26.25-23.87,40.83
						c-8.29,18.97-14.07,39.07-16.71,59.8c-1.01,9.42-1.63,18.97-1.63,28.14c0,30.9,6.28,60.8,18.34,88.19
						c2.01,4.27,4.27,8.67,6.41,12.81c2.14,4.4,4.65,8.79,7.41,12.94c2.89,4.52,5.78,9.04,9.04,13.44c0.25,0.5,0.63,1,1.01,1.51
						c2.26,3.14,4.65,6.16,7.16,9.17c2.26,2.76,4.39,5.4,6.91,7.91c2.51,2.76,5.15,5.28,7.79,7.91c2.89,3.01,5.9,5.65,8.92,8.54
						c1.44,1.08,2.77,2.29,4.09,3.49c3.05,2.56,6.04,5.23,9.23,7.57c3.64,3.01,7.29,5.65,11.3,8.04c2.01,1.26,3.89,2.64,5.91,3.77
						c0.5,0.5,1.13,0.88,1.88,1.26c1.26,0.75,2.76,1.63,4.14,2.51c0.5,0.25,1.13,0.63,1.88,0.75c1.01,0.75,2.01,1.38,3.01,1.76
						c3.14,1.76,6.53,3.52,9.8,5.02c1.51,0.75,3.27,1.51,4.77,2.14c1.26,0.5,2.51,1,3.64,1.51c0.38,0.25,0.63,0.38,0.88,0.5
						c0.5,0.25,1,0.5,1.63,0.63C987.99,1195.16,989.37,1195.66,990.76,1196.16z"/>
					
						<linearGradient id="SVGID_00000004503807196144639260000018177192439676264622_" gradientUnits="userSpaceOnUse" x1="753.1546" y1="1274.2411" x2="1285.4722" y2="1279.0367">
						<stop  offset="0" style="stop-color:#04E0FF"/>
						<stop  offset="1" style="stop-color:#7B05FE;stop-opacity:0"/>
					</linearGradient>
					<path style="fill:url(#SVGID_00000004503807196144639260000018177192439676264622_);" d="M1329.3,1253.57v0.13h-0.13
						c-0.75,0.88-1.38,1.51-2.01,2.01c-1.63,1.51-3.14,3.14-4.77,4.65c-3.27,3.02-6.53,6.03-9.8,8.92
						c-5.78,5.03-11.56,9.92-17.59,14.57c-3.01,2.39-5.9,4.52-8.92,6.91c-5.15,3.64-10.18,7.29-15.58,10.68
						c-3.9,2.64-7.91,5.15-11.93,7.54c-0.13,0.12-0.5,0.38-0.63,0.38c-5.15,3.14-10.43,6.03-15.7,8.79
						c-5.28,2.89-10.68,5.53-15.95,8.04c-2.76,1.38-5.4,2.51-8.16,3.77c-5.15,2.14-10.3,4.27-15.33,6.16
						c-2.64,1.38-5.4,2.39-8.17,3.14c-3.89,1.51-7.54,2.89-11.43,4.02c-2.14,0.75-4.4,1.38-6.53,2.01c-1.63,0.5-3.39,1.01-5.03,1.51
						c-8.42,2.39-16.71,4.52-25.12,6.28c-2.39,0.63-4.65,1.01-7.16,1.51c-1.88,0.5-3.77,0.75-5.53,1.01
						c-9.04,1.63-18.09,3.01-27.39,3.77c-3.14,0.38-6.28,0.75-9.55,0.88c-2.13,0.13-4.52,0.38-6.78,0.5
						c-3.39,0.12-6.91,0.12-10.3,0.38c-0.25,0.13-0.63,0.13-1.01,0c-3.27,0.13-6.78,0.25-10.3,0.25c-9.42,0-18.59-0.25-28.01-1.13
						c-1.88,0-3.89-0.13-5.9-0.5c-4.14-0.38-8.29-0.88-12.56-1.51c-7.03-0.63-13.82-1.88-20.85-3.01c-0.88-0.38-1.76-0.5-2.51-0.63
						c-2.26-0.38-4.4-0.88-6.53-1.38c-13.82-2.89-27.51-6.53-40.95-11.05c-3.14-1-6.16-2.14-9.17-3.27l10.42-11.31l108.92-117.08
						l0.25-0.25c2.14,0.13,4.27,0.13,6.28,0.13h0.45c4.66,0,9.3,0.08,13.99-0.25h0.5c4.4-0.25,8.79-0.75,13.07-1.26
						c3.39-0.38,6.78-0.75,9.92-1.51c2.51-0.38,5.03-0.75,7.54-1.38c2.14-0.5,4.4-1.01,6.41-1.51c0.13,0.13,0.5,0,0.63-0.13
						c0.75-0.13,1.63-0.25,2.51-0.5c1.01-0.25,2.01-0.5,3.14-0.88c1.13-0.25,2.39-0.63,3.52-1.01c0.75-0.13,1.26-0.38,1.88-0.5
						c3.01-0.88,6.03-1.63,9.05-2.39c1-0.13,2.01-0.5,3.01-0.63c3.52-0.88,7.03-1.38,10.55-2.01c13.57-2.14,27.13-2.89,40.58-2.39
						c0.25-0.13,0.63-0.13,1.01,0c17.59,0.88,34.8,4.15,51.5,9.42c2.64,0.63,5.28,1.51,7.79,2.51c2.64,1,5.53,2.01,8.17,3.14
						c3.52,1.51,7.03,3.27,10.55,4.9c3.52,1.63,7.04,3.52,10.43,5.53c3.52,2.01,7.03,4.02,10.43,6.16c0.63,0.38,1.13,0.75,1.76,1.26
						c1.88,1.13,3.77,2.39,5.65,3.77c3.64,2.64,7.29,5.28,10.8,8.17c1.76,1.38,3.52,2.89,5.15,4.4c3.39,2.76,6.53,5.53,9.55,8.54
						c0.38,0.38,0.5,0.75,0.88,0.88c0,0,0.12,0.13,0.25,0.13c0,0.13,0.13,0.13,0.13,0.25c0.13,0,0.13,0.13,0.25,0.13
						C1329.18,1253.19,1329.18,1253.32,1329.3,1253.57z"/>
				</g>
				<g>
					
						<linearGradient id="SVGID_00000089564540837117702400000013037071663973195191_" gradientUnits="userSpaceOnUse" x1="479.9904" y1="955.0157" x2="1263.0923" y2="962.0707">
						<stop  offset="0" style="stop-color:#04E0FF"/>
						<stop  offset="1" style="stop-color:#7B05FE;stop-opacity:0"/>
					</linearGradient>
					<path style="fill:url(#SVGID_00000089564540837117702400000013037071663973195191_);" d="M990.76,1196.16l-90.95,97.73
						c-19.09-14.82-36.81-32.03-53.14-51.38c-5.15-6.41-10.43-12.94-15.2-19.6c-3.01-4.27-6.03-8.42-8.92-12.81
						c-38.32-57.91-60.68-127.51-63.82-199.36c-0.13-3.01-0.38-6.03-0.13-9.17c-0.25-2.64-0.25-5.53-0.25-8.42
						c0-2.76,0-5.65,0.25-8.29c0.63-35.93,5.78-70.6,15.33-103.76c0.25-0.13,0.25-0.25,0.25-0.63c2.76-9.55,6.03-18.97,9.55-28.26
						c10.05-26.88,22.86-52.13,38.69-75.75c10.17-15.45,21.61-30.02,33.92-43.72c62.43-68.71,143.33-104.52,225.24-107.41
						c90.07,3.01,179.01,38.69,247.72,107.41c0,0,0,0-0.13,0.13c0,0-0.12,0.13-0.25,0.25c-0.13,0.13-0.13,0.25-0.25,0.38
						c-34.92,38.06-81.78,59.54-129.51,59.54c-2.01,0-4.02,0-6.03-0.13c-14.57-0.5-29.14-3.27-43.47-7.91
						c-22.11-7.29-44.97-10.3-67.84-8.67c-22.61,1.26-44.85,7.03-65.95,16.71c-6.16,2.89-12.18,6.03-18.21,9.92
						c-23.12,13.69-44.22,32.91-61.68,57.91c-0.88,1.13-1.51,2.39-2.39,3.52c-8.67,12.69-15.7,26.25-21.61,40.83
						c-7.54,18.97-12.69,39.07-15.07,59.8c-1.01,9.42-1.63,18.97-1.63,28.14c0,46.73,13.44,91.2,38.06,128.26
						c8.79,13.32,19.34,25.75,31.28,36.93c2.89,2.89,6.03,5.53,9.04,8.29c1.88,1.51,3.52,2.64,5.15,4.15
						c1.76,1.38,3.39,2.64,5.28,3.89c1.76,1.26,3.52,2.64,5.28,3.77c1.88,1.38,3.77,2.51,5.53,3.77c0.88,0.5,1.76,1.01,2.51,1.51
						c0.5,0.25,1.26,0.63,1.76,1.01c0.5,0.25,0.88,0.5,1.38,0.88l-9.8,10.43V1196.16z"/>
					
						<linearGradient id="SVGID_00000169521770875217402620000009885647273407610558_" gradientUnits="userSpaceOnUse" x1="768.5369" y1="1274.2062" x2="1286.6382" y2="1278.8738">
						<stop  offset="0" style="stop-color:#04E0FF"/>
						<stop  offset="1" style="stop-color:#7B05FE;stop-opacity:0"/>
					</linearGradient>
					<path style="fill:url(#SVGID_00000169521770875217402620000009885647273407610558_);" d="M1329.3,1253.57v0.13h-0.13
						c-0.75,0.88-1.38,1.51-2.01,2.01c-0.25,0.38-0.38,0.5-0.75,0.88c-1.25,1.26-2.64,2.51-4.02,3.77c-3.27,3.02-6.53,6.03-9.8,8.92
						c-5.78,5.03-11.56,9.92-17.59,14.57c-3.01,2.39-5.9,4.52-8.92,6.91c-5.15,3.64-10.18,7.29-15.58,10.68
						c-3.9,2.64-7.91,5.15-11.93,7.54c-0.13,0.12-0.5,0.38-0.63,0.38c-5.15,3.14-10.43,6.03-15.7,8.79
						c-5.28,2.89-10.68,5.53-15.95,8.04c-2.76,1.38-5.4,2.51-8.16,3.77c-5.15,2.14-10.3,4.27-15.33,6.16
						c-2.64,1.38-5.4,2.39-8.17,3.14c-3.89,1.51-7.54,2.89-11.43,4.02c-2.14,0.75-4.4,1.38-6.53,2.01c-1.63,0.5-3.39,1.01-5.03,1.51
						c-8.42,2.39-16.71,4.52-25.12,6.28c-2.39,0.63-4.65,1.01-7.16,1.51c-1.88,0.5-3.77,0.75-5.53,1.01
						c-9.04,1.63-18.09,3.01-27.39,3.77c-3.14,0.38-6.28,0.75-9.55,0.88c-2.13,0.13-4.52,0.38-6.78,0.5
						c-3.39,0.12-6.91,0.12-10.3,0.38c-0.25,0.13-0.63,0.13-1.01,0c-6.03-0.25-12.06-0.75-18.09-1.38
						c-2.64-0.38-5.28-0.63-8.04-1.01c-2.64-0.38-5.15-0.63-7.79-1.13c-2.51-0.38-5.03-0.88-7.41-1.38c-0.5,0-1,0-1.51-0.12
						c-2.39-0.5-4.65-0.88-7.04-1.51c-2.64-0.5-5.4-1-7.91-1.76c-15.7-3.64-31.41-8.79-46.73-15.2c-5.15-2.14-10.55-4.52-15.7-7.03
						c-2.01-0.88-4.02-1.88-6.16-3.01l108.92-117.08l0.25-0.25l1.88-2.01c1.01,0.13,2.01,0.38,3.01,0.38
						c5.28,0.75,10.68,1.26,15.83,1.51h2.26c19.35,1.01,38.44-1.13,56.78-6.16c2.14-0.63,4.52-1.38,6.66-2.01
						c0.5-0.13,1.01-0.38,1.63-0.5c3.52-1.13,7.29-2.14,10.93-3.02c11.18-2.64,22.61-4.14,34.04-4.4c0.25-0.13,0.63-0.13,1.01,0
						c0.75-0.13,1.63-0.13,2.51-0.13h0.75c24.12,0,47.99,5.4,70.22,15.2c6.53,3.01,12.94,6.41,19.09,10.43
						c14.32,8.42,27.39,19.22,39.45,32.16c0,0.12,0.13,0.38,0.5,0.5c0.13,0.25,0.38,0.38,0.38,0.63c0.25,0.13,0.25,0.25,0.38,0.38
						C1329.18,1253.19,1329.18,1253.32,1329.3,1253.57z"/>
				</g>
				<g>
					
						<linearGradient id="SVGID_00000121268007880943055580000005548662741316636565_" gradientUnits="userSpaceOnUse" x1="830.4996" y1="931.2856" x2="1249.9937" y2="1001.2013">
						<stop  offset="0" style="stop-color:#04E0FF"/>
						<stop  offset="1" style="stop-color:#7B05FE;stop-opacity:0"/>
					</linearGradient>
					<path style="fill:url(#SVGID_00000121268007880943055580000005548662741316636565_);" d="M990.76,1196.16l-90.95,97.73
						c-19.09-14.82-36.81-32.03-53.14-51.38c-5.15-6.41-10.43-12.94-15.2-19.6c-3.01-4.27-6.03-8.42-8.92-12.81
						c-38.32-57.91-60.68-127.51-63.82-199.36c-0.13-3.01-0.38-6.03-0.13-9.17c-0.25-2.64-0.25-5.53-0.25-8.42
						c0-2.76,0-5.65,0.25-8.29c0.63-35.93,5.78-70.6,15.33-103.76c0.25-0.13,0.25-0.25,0.25-0.63c2.76-9.55,6.03-18.97,9.55-28.26
						c10.05-26.88,22.86-52.13,38.69-75.75c10.17-15.45,21.61-30.02,33.92-43.72c62.43-68.71,143.33-104.52,225.24-107.41
						c90.07,3.01,179.01,38.69,247.72,107.41c0,0,0,0-0.13,0.13c0,0-0.12,0.13-0.25,0.25c-0.13,0.13-0.13,0.25-0.25,0.38
						c-34.92,38.06-81.78,59.54-129.51,59.54c-2.01,0-4.02,0-6.03-0.13c-14.57-0.5-29.14-3.27-43.47-7.91
						c-22.11-7.29-44.97-10.3-67.84-8.67c-22.61,1.26-44.85,7.03-65.95,16.71c-6.16,2.89-12.18,6.03-18.21,9.92
						c-23.12,13.69-44.22,32.91-61.68,57.91c-0.88,1.13-1.51,2.39-2.39,3.52c-8.67,12.69-15.7,26.25-21.61,40.83
						c-7.54,18.97-12.69,39.07-15.07,59.8c-1.01,9.42-1.63,18.97-1.63,28.14c0,46.73,13.44,91.2,38.06,128.26
						c8.79,13.32,19.34,25.75,31.28,36.93c2.89,2.89,6.03,5.53,9.04,8.29c1.88,1.51,3.52,2.64,5.15,4.15
						c1.76,1.38,3.39,2.64,5.28,3.89c1.76,1.26,3.52,2.64,5.28,3.77c1.88,1.38,3.77,2.51,5.53,3.77c0.88,0.5,1.76,1.01,2.51,1.51
						c0.5,0.25,1.26,0.63,1.76,1.01c0.5,0.25,0.88,0.5,1.38,0.88l-9.8,10.43V1196.16z"/>
					
						<linearGradient id="SVGID_00000183939027843561454880000010608925447667203462_" gradientUnits="userSpaceOnUse" x1="1010.5256" y1="1256.0529" x2="1297.3126" y2="1303.8507">
						<stop  offset="0" style="stop-color:#04E0FF"/>
						<stop  offset="1" style="stop-color:#7B05FE;stop-opacity:0"/>
					</linearGradient>
					<path style="fill:url(#SVGID_00000183939027843561454880000010608925447667203462_);" d="M1329.3,1253.57v0.13h-0.13
						c-0.75,0.88-1.38,1.51-2.01,2.01c-0.25,0.38-0.38,0.5-0.75,0.88c-1.25,1.26-2.64,2.51-4.02,3.77c-3.27,3.02-6.53,6.03-9.8,8.92
						c-5.78,5.03-11.56,9.92-17.59,14.57c-3.01,2.39-5.9,4.52-8.92,6.91c-5.15,3.64-10.18,7.29-15.58,10.68
						c-3.9,2.64-7.91,5.15-11.93,7.54c-0.13,0.12-0.5,0.38-0.63,0.38c-5.15,3.14-10.43,6.03-15.7,8.79
						c-5.28,2.89-10.68,5.53-15.95,8.04c-2.76,1.38-5.4,2.51-8.16,3.77c-5.15,2.14-10.3,4.27-15.33,6.16
						c-2.64,1.38-5.4,2.39-8.17,3.14c-3.89,1.51-7.54,2.89-11.43,4.02c-2.14,0.75-4.4,1.38-6.53,2.01c-1.63,0.5-3.39,1.01-5.03,1.51
						c-8.42,2.39-16.71,4.52-25.12,6.28c-2.39,0.63-4.65,1.01-7.16,1.51c-1.88,0.5-3.77,0.75-5.53,1.01
						c-9.04,1.63-18.09,3.01-27.39,3.77c-3.14,0.38-6.28,0.75-9.55,0.88c-2.13,0.13-4.52,0.38-6.78,0.5
						c-3.39,0.12-6.91,0.12-10.3,0.38c-0.25,0.13-0.63,0.13-1.01,0c-6.03-0.25-12.06-0.75-18.09-1.38
						c-2.64-0.38-5.28-0.63-8.04-1.01c-2.64-0.38-5.15-0.63-7.79-1.13c-2.51-0.38-5.03-0.88-7.41-1.38c-0.5,0-1,0-1.51-0.12
						c-2.39-0.5-4.65-0.88-7.04-1.51c-2.64-0.5-5.4-1-7.91-1.76c-15.7-3.64-31.41-8.79-46.73-15.2c-5.15-2.14-10.55-4.52-15.7-7.03
						c-2.01-0.88-4.02-1.88-6.16-3.01l108.92-117.08l0.25-0.25l1.88-2.01c1.01,0.13,2.01,0.38,3.01,0.38
						c5.28,0.75,10.68,1.26,15.83,1.51h2.26c19.35,1.01,38.44-1.13,56.78-6.16c2.14-0.63,4.52-1.38,6.66-2.01
						c0.5-0.13,1.01-0.38,1.63-0.5c3.52-1.13,7.29-2.14,10.93-3.02c11.18-2.64,22.61-4.14,34.04-4.4c0.25-0.13,0.63-0.13,1.01,0
						c0.75-0.13,1.63-0.13,2.51-0.13h0.75c24.12,0,47.99,5.4,70.22,15.2c6.53,3.01,12.94,6.41,19.09,10.43
						c14.32,8.42,27.39,19.22,39.45,32.16c0,0.12,0.13,0.38,0.5,0.5c0.13,0.25,0.38,0.38,0.38,0.63c0.25,0.13,0.25,0.25,0.38,0.38
						C1329.18,1253.19,1329.18,1253.32,1329.3,1253.57z"/>
				</g>
				
					<linearGradient id="SVGID_00000068649589428024428180000017829703816906783875_" gradientUnits="userSpaceOnUse" x1="640.6852" y1="808.6481" x2="1114.6572" y2="809.6335">
					<stop  offset="0" style="stop-color:#04E0FF"/>
					<stop  offset="1" style="stop-color:#7B05FE;stop-opacity:0"/>
				</linearGradient>
				<path style="fill:url(#SVGID_00000068649589428024428180000017829703816906783875_);" d="M1329.3,732.72c0,0,0,0-0.17,0.17
					c-36.69,36.69-85.6,58.13-136.03,59.97c-2.34,0.17-4.69,0.17-7.03,0.17c-18.26,0-36.69-2.68-54.61-8.04
					c-16.08-4.86-32.83-7.71-49.58-8.71c-33-2.01-66.67,3.68-97.66,16.75c-33.17,13.9-63.82,36.52-87.95,67.84
					c-0.84,1.17-1.67,2.35-2.51,3.52c-9.55,12.73-17.42,26.3-23.79,40.87c-27.14,38.53-66.5,66.5-111.4,79.57
					c-18.59,5.53-38.03,8.38-57.96,8.38c0-38.7,6.03-76.39,17.42-112.07c0-0.17,0.17-0.33,0.17-0.67
					c3.01-9.55,6.53-18.93,10.38-28.31c18.26-44.06,45.23-84.6,79.91-119.44c75.05-75.05,174.55-110.9,273.05-107.38
					C1171.67,628.36,1260.61,664.04,1329.3,732.72z"/>
				
					<linearGradient id="SVGID_00000152255723406648389030000007155754848764076944_" gradientUnits="userSpaceOnUse" x1="672.3802" y1="1152.0079" x2="891.3401" y2="1152.4631">
					<stop  offset="0" style="stop-color:#04E0FF"/>
					<stop  offset="1" style="stop-color:#7B05FE;stop-opacity:0"/>
				</linearGradient>
				<path style="fill:url(#SVGID_00000152255723406648389030000007155754848764076944_);" d="M990.76,1196.04v0.13l-90.95,97.73
					l-16.21,17.46c-2.76-1.51-5.53-3.27-8.29-4.9c-4.65-2.89-9.42-5.9-13.95-9.05c-2.89-1.88-5.65-3.77-8.42-5.9
					c-8.29-5.78-16.33-12.19-24.24-19.22c-6.78-5.65-13.69-12.06-20.23-18.59c-3.39-3.39-6.66-6.91-9.67-10.43
					c-0.5-0.25-0.88-0.63-1-1c-3.01-3.14-5.9-6.16-8.42-9.55c-2.89-3.14-5.53-6.53-8.16-9.8c-2.89-3.52-5.4-7.03-8.42-10.55
					c-2.39-3.27-4.65-6.53-6.91-9.92c-0.38-0.5-0.63-0.88-1.01-1.38c-0.75-0.88-1.38-1.63-1.76-2.51c-0.25-0.25-0.5-0.63-0.75-1.01
					v-0.12c-1.13-1.51-2.14-3.27-3.14-4.9c-1.51-2.01-2.89-4.15-4.02-6.28c-0.25-0.38-0.5-0.88-0.88-1.26
					c-0.5-0.88-1.13-1.63-1.63-2.64c0,0,0,0,0-0.13c-1.01-1.63-2.01-3.39-3.01-5.15c-2.01-3.39-4.02-6.91-5.9-10.3
					c-1.41-2.64-2.57-5.45-3.91-8.15c-2.28-4.48-4.44-9-6.52-13.58c-1.38-3.01-2.76-6.16-4.02-9.3c-0.25-0.25-0.25-0.5-0.38-0.75
					c-0.13-0.25-0.25-0.5-0.38-0.75c-0.75-1.88-1.51-3.64-2.26-5.53c-0.63-1.76-1.25-3.64-1.88-5.53c-0.38-0.88-0.88-1.76-1.13-2.76
					c-0.5-0.88-0.75-1.88-1.13-2.89c-0.13-0.38-0.25-0.63-0.25-1c-1.13-2.51-2.01-5.28-2.64-7.91c-0.13-0.38-0.25-0.63-0.38-1.01
					c-7.29-21.61-12.31-44.22-15.08-67.21c-0.25-0.13-0.25-0.5-0.25-0.63c-0.13-0.12-0.13-0.38,0-0.5v-0.13
					c-0.63-4.52-1.13-9.3-1.51-13.94c-0.5-4.52-0.75-9.17-1.01-13.69c-0.25-6.03-0.5-12.31-0.5-18.34c19.97,0,39.45,2.89,58.04,8.42
					c44.85,13.06,84.17,41.08,111.3,79.77c2.01,4.27,4.02,8.67,6.41,12.81c2.14,4.4,4.65,8.79,7.41,12.94
					c2.64,4.77,5.65,9.04,9.04,13.44c0.25,0.5,0.63,1,1.01,1.51c0.88,1.38,1.63,2.39,2.51,3.52c1.51,2.01,3.01,3.89,4.65,5.65
					c2.26,2.76,4.39,5.4,6.91,7.91c9.17,10.43,19.22,19.6,30.02,27.51c3.64,3.01,7.29,5.65,11.3,8.04c1.89,1.51,3.89,2.64,5.91,3.77
					c0.5,0.5,1.13,0.88,1.88,1.26c2.01,1.13,4.02,2.26,6.03,3.27c1.01,0.75,2.01,1.38,3.01,1.76c3.14,1.76,6.53,3.52,9.8,5.02
					c1.51,0.75,3.27,1.51,4.77,2.14c1.13,0.63,2.26,1.13,3.52,1.63c0.38,0.12,0.63,0.25,1.01,0.38c0.5,0.25,1,0.5,1.63,0.63
					C987.99,1195.16,989.37,1195.66,990.76,1196.04z"/>
				
					<linearGradient id="SVGID_00000061449538721139605740000013693126942914056065_" gradientUnits="userSpaceOnUse" x1="905.0446" y1="1276.9769" x2="1196.6217" y2="1277.5831">
					<stop  offset="0" style="stop-color:#04E0FF"/>
					<stop  offset="1" style="stop-color:#7B05FE;stop-opacity:0"/>
				</linearGradient>
				<path style="fill:url(#SVGID_00000061449538721139605740000013693126942914056065_);" d="M1329.18,1253.7
					c-0.75,0.88-1.38,1.51-2.01,2.01c-0.25,0.38-0.38,0.5-0.75,0.88c-1.25,1.26-2.64,2.51-4.02,3.77c-3.27,3.02-6.53,6.03-9.8,8.92
					c-5.78,5.03-11.56,9.92-17.59,14.57c-3.01,2.39-5.9,4.52-8.92,6.91c-5.15,3.64-10.18,7.29-15.58,10.68
					c-3.9,2.64-7.91,5.15-11.93,7.54c-0.13,0.12-0.5,0.38-0.63,0.38c-5.15,3.14-10.43,6.03-15.7,8.79
					c-5.28,2.89-10.68,5.53-15.95,8.04c-2.76,1.38-5.4,2.51-8.16,3.77c-5.15,2.14-10.3,4.27-15.33,6.16
					c-2.64,1.38-5.4,2.39-8.17,3.14c-3.89,1.51-7.54,2.89-11.43,4.02c-2.14,0.75-4.4,1.38-6.53,2.01c-1.63,0.5-3.39,1.01-5.03,1.51
					c-8.42,2.39-16.71,4.52-25.12,6.28c-2.39,0.63-4.65,1.01-7.16,1.51c-1.88,0.5-3.77,0.75-5.53,1.01
					c-9.04,1.63-18.09,3.01-27.39,3.77c-3.14,0.38-6.28,0.75-9.55,0.88c-2.13,0.13-4.52,0.38-6.78,0.5
					c-3.39,0.12-6.91,0.12-10.3,0.38c-0.25,0.13-0.63,0.13-1.01,0c-3.27,0.13-6.78,0.25-10.3,0.25c-9.42,0-18.59-0.25-28.01-1.13
					c-1.88,0-3.89-0.13-5.9-0.5c-4.14-0.38-8.29-0.88-12.56-1.51c-7.03-0.63-13.82-1.88-20.85-3.01c-3.01-0.5-6.03-1.13-9.04-2.01
					c-13.82-2.89-27.51-6.53-40.95-11.05c-3.14-1-6.16-2.14-9.17-3.27l10.42-11.31l108.92-117.08c7.03,0.25,13.94,0.13,20.98-0.38
					h2.26c3.77-0.25,7.66-0.63,11.31-1.26c3.39-0.38,6.78-0.75,9.92-1.51c2.51-0.38,5.03-0.75,7.54-1.38
					c2.14-0.38,4.15-0.88,6.41-1.51c0.13,0.13,0.5,0,0.63-0.13c0.75-0.13,1.63-0.25,2.51-0.5c1.01-0.25,2.01-0.5,3.14-0.88
					c1.13-0.25,2.39-0.63,3.52-1.01c0.75-0.13,1.26-0.38,1.88-0.5c3.01-0.88,6.03-1.63,9.05-2.39c1-0.13,2.01-0.5,3.01-0.63
					c3.52-0.88,7.03-1.38,10.55-2.01c10.55-2.01,21.23-2.89,32.03-2.89c4.02,0,8.04,0.25,12.06,0.38h0.75
					c16.46,1.13,32.66,4.27,48.24,9.55c2.64,0.63,5.28,1.51,7.79,2.51c2.64,1,5.53,2.01,8.17,3.14c3.52,1.51,7.03,3.27,10.55,4.9
					c3.52,1.63,7.04,3.52,10.43,5.53c3.52,2.01,7.03,4.02,10.43,6.16c0.63,0.38,1.13,0.75,1.76,1.26c1.88,1.13,3.77,2.39,5.65,3.77
					c3.64,2.51,7.29,5.28,10.8,8.17c1.76,1.38,3.52,2.89,5.15,4.4c3.39,2.76,6.53,5.53,9.55,8.54c0.38,0.38,0.5,0.75,0.88,0.88
					c0,0,0.12,0.13,0.25,0.13c0,0.13,0.13,0.13,0.13,0.25C1328.8,1253.32,1328.93,1253.57,1329.18,1253.7z"/>
				
					<linearGradient id="SVGID_00000010294823602970793080000006868918257353608380_" gradientUnits="userSpaceOnUse" x1="998.7983" y1="780.4152" x2="1529.4302" y2="990.303">
					<stop  offset="0" style="stop-color:#04E0FF"/>
					<stop  offset="1" style="stop-color:#7B05FE;stop-opacity:0"/>
				</linearGradient>
				<path style="fill:url(#SVGID_00000010294823602970793080000006868918257353608380_);" d="M1329.3,732.72c0,0,0,0-0.17,0.17
					c0,0.17-0.34,0.34-0.5,0.67c-8.04,10.22-97.5,121.45-204.03,131.84c-62.48,6.2-87.95-31.83-126.98-62.48
					c-4.36-3.52-8.71-6.7-13.4-9.88c-29.32-19.6-67.51-33-130.83-23.79c-11.06,1.68-21.44,4.02-30.99,7.2
					c-57.46,18.43-87.95,61.31-104.19,104.03c3.01-9.55,6.53-18.93,10.38-28.31c18.26-44.06,45.23-84.6,79.91-119.44
					c75.05-75.05,174.55-110.9,273.05-107.38C1171.67,628.36,1260.61,664.04,1329.3,732.72z"/>
				
					<linearGradient id="SVGID_00000088831214614527594850000007573939757117045132_" gradientUnits="userSpaceOnUse" x1="838.0544" y1="1186.8683" x2="1116.4685" y2="1011.1096">
					<stop  offset="0" style="stop-color:#04E0FF"/>
					<stop  offset="1" style="stop-color:#7B05FE;stop-opacity:0"/>
				</linearGradient>
				<path style="fill:url(#SVGID_00000088831214614527594850000007573939757117045132_);" d="M990.76,1196.16l-90.95,97.73
					l-16.21,17.46c-2.76-1.51-5.53-3.27-8.29-4.9c-4.65-2.89-9.42-5.9-13.95-9.05c-2.89-1.88-5.65-3.77-8.42-5.9
					c-8.29-5.78-16.33-12.19-24.24-19.22c-6.78-5.65-13.69-12.06-20.23-18.59c-3.39-3.39-6.66-6.91-9.67-10.43
					c-0.5-0.25-0.88-0.63-1-1c-3.01-3.14-5.9-6.16-8.42-9.55c-2.89-3.14-5.53-6.53-8.16-9.8c-2.89-3.52-5.4-7.03-8.42-10.55
					c-2.39-3.27-4.65-6.53-6.91-9.92c-0.38-0.5-0.63-0.88-1.01-1.38c-0.25-0.5-0.5-1.01-0.75-1.51c-0.38-0.38-0.63-0.63-1-1.01
					c-0.25-0.25-0.5-0.63-0.75-1.01v-0.12c-1.13-1.51-2.14-3.27-3.14-4.9c-1.01-1.63-2.01-3.39-3.01-5.03
					c-0.38-0.38-0.75-0.88-1.01-1.26c-0.25-0.38-0.5-0.88-0.88-1.26c-0.5-0.88-1.13-1.63-1.63-2.64c0,0,0,0,0-0.13
					c-1.01-1.63-2.01-3.39-3.01-5.15c-0.88-1.63-1.76-3.39-2.64-5.15c-1.26-1.63-2.01-3.27-3.27-5.15
					c-1.41-2.64-2.57-5.45-3.91-8.15c-2.28-4.48-4.44-9-6.52-13.58c-1.38-3.01-2.76-6.16-4.02-9.3c-0.25-0.25-0.25-0.5-0.38-0.75
					c-0.13-0.25-0.25-0.5-0.38-0.75c-0.75-1.88-1.51-3.64-2.26-5.53c-1.13-2.76-2.13-5.53-3.01-8.29c-0.5-0.88-0.75-1.88-1.13-2.89
					c-0.13-0.38-0.25-0.63-0.25-1c-1.13-2.51-2.01-5.28-2.64-7.91c0.13,0.38,0.25,0.63,0.38,1c16.58,41.58,46.98,82.66,102.88,100.5
					c9.55,3.02,19.72,5.53,30.78,7.04c63.19,9.3,101.38-4.15,130.77-23.62c0-0.13,0.13-0.13,0.13-0.13
					c4.65-3.14,9.04-6.41,13.19-9.67c8.17-6.41,15.83-13.19,23.24-19.72l-20.1,21.61l-9.8,10.43V1196.16z"/>
				
					<linearGradient id="SVGID_00000034083367005474289250000001066047225774820247_" gradientUnits="userSpaceOnUse" x1="1053.4341" y1="1309.1335" x2="1492.5197" y2="1031.9454">
					<stop  offset="0" style="stop-color:#04E0FF"/>
					<stop  offset="1" style="stop-color:#7B05FE;stop-opacity:0"/>
				</linearGradient>
				<path style="fill:url(#SVGID_00000034083367005474289250000001066047225774820247_);" d="M1329.18,1253.7
					c-0.75,0.88-1.38,1.51-2.01,2.01c-0.25,0.38-0.38,0.5-0.75,0.88c-1.25,1.26-2.64,2.51-4.02,3.77c-3.27,3.02-6.53,6.03-9.8,8.92
					c-5.78,5.03-11.56,9.92-17.59,14.57c-3.01,2.39-5.9,4.52-8.92,6.91c-5.15,3.64-10.18,7.29-15.58,10.68
					c-3.9,2.64-7.91,5.15-11.93,7.54c-0.13,0.12-0.5,0.38-0.63,0.38c-5.15,3.14-10.43,6.03-15.7,8.79
					c-5.28,2.89-10.68,5.53-15.95,8.04c-2.76,1.38-5.4,2.51-8.16,3.77c-5.15,2.14-10.3,4.27-15.33,6.16
					c-2.64,1.38-5.4,2.39-8.17,3.14c-3.89,1.51-7.54,2.89-11.43,4.02c-2.14,0.75-4.4,1.38-6.53,2.01c-1.63,0.5-3.39,1.01-5.03,1.51
					c-8.42,2.39-16.71,4.52-25.12,6.28c-2.39,0.63-4.65,1.01-7.16,1.51c-1.88,0.5-3.77,0.75-5.53,1.01
					c-9.04,1.63-18.09,3.01-27.39,3.77c-3.14,0.38-6.28,0.75-9.55,0.88c-2.13,0.13-4.52,0.38-6.78,0.5
					c-3.39,0.12-6.91,0.12-10.3,0.38c-0.25,0.13-0.63,0.13-1.01,0c-3.27,0.13-6.78,0.25-10.3,0.25c-9.42,0-18.59-0.25-28.01-1.13
					c-1.88,0-3.89-0.13-5.9-0.5c-4.14-0.38-8.29-0.88-12.56-1.51c-7.03-0.63-13.82-1.88-20.85-3.01c-3.01-0.5-6.03-1.13-9.04-2.01
					c-13.82-2.89-27.51-6.53-40.95-11.05c-3.14-1-6.16-2.14-9.17-3.27l10.42-11.31l108.92-117.08l0.25-0.25l1.88-2.01l78.64-84.54
					c95.35,19.09,173.36,112.68,185.54,128.01c0,0.12,0.13,0.38,0.5,0.5c0,0.13,0.13,0.38,0.13,0.5c0,0,0.12,0.13,0.25,0.13
					c0,0.13,0.13,0.13,0.13,0.25C1328.8,1253.32,1328.93,1253.57,1329.18,1253.7z"/>
			</g>
			<g>
				
					<linearGradient id="SVGID_00000121257055007275415880000015245103828033981836_" gradientUnits="userSpaceOnUse" x1="619.0538" y1="1146.2072" x2="915.9305" y2="1246.7937">
					<stop  offset="0" style="stop-color:#04E0FF"/>
					<stop  offset="1" style="stop-color:#7B05FE;stop-opacity:0"/>
				</linearGradient>
				<path style="fill:url(#SVGID_00000121257055007275415880000015245103828033981836_);" d="M692.91,1209.1l46.35,103.89
					c-81.28-82.91-125.37-188.93-132.41-296.97l46.73,104.89l0.25,0.63C663.51,1151.82,676.58,1181.21,692.91,1209.1z"/>
				
					<linearGradient id="SVGID_00000133521282113758242340000000014037541198145707_" gradientUnits="userSpaceOnUse" x1="1028.1487" y1="1316.7683" x2="1665.717" y2="1532.7866">
					<stop  offset="0" style="stop-color:#04E0FF"/>
					<stop  offset="1" style="stop-color:#7B05FE;stop-opacity:0"/>
				</linearGradient>
				<path style="fill:url(#SVGID_00000133521282113758242340000000014037541198145707_);" d="M1406.19,1316.88
					c-88.56,88.56-206.4,137.43-331.64,137.43c-69.97,0-137.56-15.2-198.98-44.09l19.22-20.6c55.9,25,116.83,38.06,179.76,38.06
					c118.21,0,229.26-45.98,312.8-129.64c5.28-5.15,13.69-5.15,18.84,0C1411.33,1303.32,1411.33,1311.73,1406.19,1316.88z"/>
				
					<linearGradient id="SVGID_00000140735223640838759750000008177588308825793687_" gradientUnits="userSpaceOnUse" x1="848.0383" y1="707.6246" x2="1768.1256" y2="1019.3647">
					<stop  offset="0" style="stop-color:#04E0FF"/>
					<stop  offset="1" style="stop-color:#7B05FE;stop-opacity:0"/>
				</linearGradient>
				<path style="fill:url(#SVGID_00000140735223640838759750000008177588308825793687_);" d="M635.88,930.22l-19.6-43.97
					c18.34-85.3,60.55-166.32,126.75-232.52c88.56-88.56,206.27-137.43,331.51-137.43c125.24,0,243.08,48.87,331.64,137.43
					c5.15,5.15,5.15,13.57,0,18.84c-5.15,5.15-13.57,5.15-18.84,0c-83.54-83.54-194.59-129.64-312.8-129.64
					c-118.08,0-229.13,46.1-312.8,129.64C689.64,744.68,647.68,835.88,635.88,930.22z"/>
			</g>
		</g>
	</g>
	<g>
		
			<linearGradient id="SVGID_00000143586755282247152250000009031951829179372706_" gradientUnits="userSpaceOnUse" x1="500.2159" y1="1068.2153" x2="1502.5233" y2="1068.2153">
			<stop  offset="0" style="stop-color:#04E0FF"/>
			<stop  offset="1" style="stop-color:#7B05FE;stop-opacity:0"/>
		</linearGradient>
		<polygon style="fill:url(#SVGID_00000143586755282247152250000009031951829179372706_);" points="818.32,1444.08 500.22,730.5 
			521.95,720.81 825.41,1401.53 1485.1,692.35 1502.52,708.55 		"/>
	</g>
	<g>
		<circle class="st17" cx="1488.22" cy="701.85" r="49"/>
		<path d="M1488.22,762.75c-33.58,0-60.9-27.32-60.9-60.9c0-33.58,27.32-60.9,60.9-60.9s60.9,27.32,60.9,60.9
			C1549.12,735.43,1521.8,762.75,1488.22,762.75z M1488.22,664.76c-20.45,0-37.1,16.64-37.1,37.1c0,20.46,16.65,37.1,37.1,37.1
			s37.1-16.64,37.1-37.1C1525.32,681.4,1508.67,664.76,1488.22,664.76z"/>
	</g>
	<circle class="st17" cx="823.26" cy="1422.8" r="49"/>
	
		<linearGradient id="SVGID_00000114790571261203203330000000002682701896163480_" gradientUnits="userSpaceOnUse" x1="762.3643" y1="1422.8038" x2="884.158" y2="1422.8038">
		<stop  offset="0" style="stop-color:#04E0FF"/>
		<stop  offset="1" style="stop-color:#7B05FE;stop-opacity:0"/>
	</linearGradient>
	<path style="fill:url(#SVGID_00000114790571261203203330000000002682701896163480_);" d="M823.26,1483.7
		c-33.58,0-60.9-27.32-60.9-60.9c0-33.58,27.32-60.9,60.9-60.9c33.58,0,60.9,27.32,60.9,60.9
		C884.16,1456.38,856.84,1483.7,823.26,1483.7z M823.26,1385.71c-20.45,0-37.1,16.64-37.1,37.1c0,20.46,16.65,37.1,37.1,37.1
		c20.45,0,37.1-16.64,37.1-37.1C860.36,1402.35,843.71,1385.71,823.26,1385.71z"/>
	<g>
		<circle class="st17" cx="504.09" cy="717.25" r="49"/>
		<path d="M504.09,778.15c-33.58,0-60.9-27.32-60.9-60.9s27.32-60.9,60.9-60.9s60.9,27.32,60.9,60.9S537.67,778.15,504.09,778.15z
			 M504.09,680.15c-20.45,0-37.1,16.64-37.1,37.1s16.65,37.1,37.1,37.1s37.1-16.64,37.1-37.1S524.54,680.15,504.09,680.15z"/>
	</g>
	
		<linearGradient id="SVGID_00000108276500681728882370000002163405415549114771_" gradientUnits="userSpaceOnUse" x1="394.4706" y1="743.3784" x2="581.3472" y2="743.3784">
		<stop  offset="0" style="stop-color:#04E0FF"/>
		<stop  offset="1" style="stop-color:#7B05FE"/>
	</linearGradient>
	
		<path style="fill:url(#SVGID_00000108276500681728882370000002163405415549114771_);stroke:#FFFFFF;stroke-width:2.4142;stroke-miterlimit:10;" d="
		M526.93,655.07h-78.04c-30.05,0-54.42,24.36-54.42,54.42v24.64c0,30.06,24.36,54.42,54.42,54.42h72.65l34.14,43.13l-1.53-50.47
		c16.24-9.42,27.2-26.95,27.2-47.07v-24.64C581.35,679.44,556.98,655.07,526.93,655.07z"/>
	
		<linearGradient id="SVGID_00000079473942322433338180000007832706972092101552_" gradientUnits="userSpaceOnUse" x1="1418.6527" y1="725.6436" x2="1605.5294" y2="725.6436">
		<stop  offset="0" style="stop-color:#04E0FF"/>
		<stop  offset="1" style="stop-color:#7B05FE"/>
	</linearGradient>
	
		<path style="fill:url(#SVGID_00000079473942322433338180000007832706972092101552_);stroke:#FFFFFF;stroke-width:2.4142;stroke-miterlimit:10;" d="
		M1473.07,637.34h78.04c30.05,0,54.42,24.36,54.42,54.42v24.64c0,30.06-24.36,54.42-54.42,54.42h-72.65l-34.14,43.13l1.53-50.47
		c-16.24-9.42-27.2-26.95-27.2-47.07v-24.64C1418.65,661.7,1443.02,637.34,1473.07,637.34z"/>
</g>
</svg>
