<?xml version="1.0" encoding="utf-8"?>
<!-- Generator: Adobe Illustrator 25.0.0, SVG Export Plug-In . SVG Version: 6.00 Build 0)  -->
<svg version="1.1" id="Layer_1" xmlns="http://www.w3.org/2000/svg" xmlns:xlink="http://www.w3.org/1999/xlink" x="0px" y="0px"
	 viewBox="300 300 1400 1400" style="enable-background:new 0 0 2000 2000;" xml:space="preserve">
<style type="text/css">
	.st0{fill:transparent;}
	.st1{fill:url(#SVGID_1_);}
	.st2{fill:url(#SVGID_2_);}
	.st3{fill:url(#SVGID_3_);}
	.st4{fill:url(#SVGID_4_);}
	.st5{fill:url(#SVGID_5_);}
	.st6{fill:url(#SVGID_6_);}
	.st7{fill:url(#SVGID_7_);}
	.st8{fill:url(#SVGID_8_);}
	.st9{fill:url(#SVGID_9_);}
	.st10{fill:url(#SVGID_10_);}
	.st11{fill:url(#SVGID_11_);}
	.st12{fill:url(#SVGID_12_);}
	.st13{fill:url(#SVGID_13_);}
	.st14{fill:url(#SVGID_14_);}
	.st15{fill:url(#SVGID_15_);}
	.st16{fill:#FFFFFF;}
	.st17{fill:url(#SVGID_16_);}
	.st18{fill:url(#SVGID_17_);}
	.st19{fill:url(#SVGID_18_);stroke:#FFFFFF;stroke-width:2.4142;stroke-miterlimit:10;}
	.st20{fill:url(#SVGID_19_);stroke:#FFFFFF;stroke-width:2.4142;stroke-miterlimit:10;}
</style>
<rect x="-22.81" y="-19.84" class="st0" width="2050" height="2058.14"/>
<g>
	<g>
		<g>
			<g>
				<g>
					<linearGradient id="SVGID_1_" gradientUnits="userSpaceOnUse" x1="368.0818" y1="985.7699" x2="699.6628" y2="988.7571">
						<stop  offset="0" style="stop-color:#04E0FF"/>
						<stop  offset="1" style="stop-color:#7B05FE;stop-opacity:0"/>
					</linearGradient>
					<path class="st1" d="M597.52,1075.4l-34.96,37.56l-6.23,6.71c-1.06-0.58-2.12-1.26-3.19-1.88c-1.79-1.11-3.62-2.27-5.36-3.48
						c-1.11-0.72-2.17-1.45-3.23-2.27c-3.19-2.32-6.28-4.78-9.32-7.39c-3.96-3.48-7.82-7.19-11.49-11.15
						c-0.19-0.1-0.34-0.24-0.39-0.39c-1.16-1.21-2.27-2.37-3.24-3.67c-1.11-1.21-2.12-2.51-3.14-3.77c-1.11-1.35-2.08-2.7-3.24-4.06
						c-0.92-1.26-1.79-2.51-2.66-3.81c-0.14-0.19-0.24-0.34-0.39-0.53c-0.1-0.19-0.19-0.39-0.29-0.58
						c-1.06-1.55-2.08-3.09-3.04-4.64c-1.21-1.93-2.37-3.91-3.52-5.99c-2.56-4.49-4.78-9.13-6.81-13.91
						c-0.63-1.59-1.25-3.23-1.88-4.83c-0.34-0.68-0.58-1.4-0.87-2.17c-0.05-0.14-0.1-0.24-0.1-0.39c-0.34-0.92-0.58-1.79-0.87-2.66
						c-0.05-0.14-0.1-0.24-0.14-0.39c-2.8-8.5-4.73-17.29-5.94-26.22c-0.1-0.05-0.1-0.19-0.1-0.24c-0.05-0.05-0.05-0.14,0-0.19
						v-0.05c-0.24-1.74-0.43-3.57-0.58-5.36c-0.19-1.74-0.29-3.52-0.39-5.26c-0.1-2.32-0.19-4.73-0.19-7.05
						c0-14.87,2.32-29.36,6.71-43.07c0-0.05,0.05-0.1,0.05-0.24c1.16-3.67,2.51-7.29,4.01-10.86c7-16.95,17.38-32.54,30.71-45.92
						c28.83-28.87,67.11-42.63,104.97-41.28c34.62,1.16,68.8,14.87,95.22,41.28c0,0,0,0-0.05,0.05c0,0-0.05,0.05-0.1,0.1
						c-14.1,14.05-32.88,22.26-52.19,22.98c-0.92,0.05-1.84,0.05-2.7,0.05c-7.05,0-14.1-1.01-21-3.09
						c-6.18-1.88-12.6-2.95-19.07-3.33c-12.65-0.77-25.59,1.4-37.52,6.42c-12.75,5.36-24.53,14.05-33.8,26.07
						c-0.34,0.43-0.63,0.92-0.97,1.35c-3.67,4.88-6.71,10.09-9.17,15.69c-3.19,7.29-5.41,15.02-6.42,22.98
						c-0.39,3.62-0.63,7.29-0.63,10.82c0,11.88,2.41,23.37,7.05,33.9c0.77,1.64,1.64,3.33,2.46,4.93c0.82,1.69,1.79,3.38,2.85,4.97
						c1.11,1.74,2.22,3.48,3.48,5.17c0.1,0.19,0.24,0.39,0.39,0.58c0.87,1.21,1.79,2.37,2.75,3.52c0.87,1.06,1.69,2.08,2.66,3.04
						c0.97,1.06,1.98,2.03,2.99,3.04c1.11,1.16,2.27,2.17,3.43,3.28c0.56,0.42,1.06,0.88,1.57,1.34c1.17,0.98,2.32,2.01,3.55,2.91
						c1.4,1.16,2.8,2.17,4.35,3.09c0.77,0.48,1.5,1.01,2.27,1.45c0.19,0.19,0.43,0.34,0.72,0.48c0.48,0.29,1.06,0.63,1.59,0.97
						c0.19,0.1,0.43,0.24,0.72,0.29c0.39,0.29,0.77,0.53,1.16,0.68c1.21,0.68,2.51,1.35,3.77,1.93c0.58,0.29,1.26,0.58,1.83,0.82
						c0.48,0.19,0.97,0.39,1.4,0.58c0.14,0.1,0.24,0.14,0.34,0.19c0.19,0.1,0.39,0.19,0.63,0.24
						C596.46,1075.01,596.99,1075.2,597.52,1075.4z"/>
					<linearGradient id="SVGID_2_" gradientUnits="userSpaceOnUse" x1="506.1986" y1="1105.4073" x2="710.8004" y2="1107.2506">
						<stop  offset="0" style="stop-color:#04E0FF"/>
						<stop  offset="1" style="stop-color:#7B05FE;stop-opacity:0"/>
					</linearGradient>
					<path class="st2" d="M727.65,1097.46v0.05h-0.05c-0.29,0.34-0.53,0.58-0.77,0.77c-0.63,0.58-1.21,1.21-1.83,1.79
						c-1.26,1.16-2.51,2.32-3.77,3.43c-2.22,1.93-4.44,3.81-6.76,5.6c-1.16,0.92-2.27,1.74-3.43,2.66c-1.98,1.4-3.91,2.8-5.99,4.1
						c-1.5,1.01-3.04,1.98-4.59,2.9c-0.05,0.05-0.19,0.14-0.24,0.14c-1.98,1.21-4.01,2.32-6.04,3.38c-2.03,1.11-4.1,2.12-6.13,3.09
						c-1.06,0.53-2.08,0.97-3.14,1.45c-1.98,0.82-3.96,1.64-5.89,2.37c-1.01,0.53-2.08,0.92-3.14,1.21c-1.5,0.58-2.9,1.11-4.39,1.55
						c-0.82,0.29-1.69,0.53-2.51,0.77c-0.63,0.19-1.3,0.39-1.93,0.58c-3.24,0.92-6.42,1.74-9.66,2.41
						c-0.92,0.24-1.79,0.39-2.75,0.58c-0.72,0.19-1.45,0.29-2.12,0.39c-3.48,0.63-6.95,1.16-10.53,1.45
						c-1.21,0.15-2.41,0.29-3.67,0.34c-0.82,0.05-1.74,0.15-2.61,0.19c-1.3,0.05-2.66,0.05-3.96,0.14c-0.1,0.05-0.24,0.05-0.39,0
						c-1.26,0.05-2.61,0.1-3.96,0.1c-3.62,0-7.15-0.1-10.77-0.43c-0.72,0-1.5-0.05-2.27-0.19c-1.59-0.15-3.19-0.34-4.83-0.58
						c-2.7-0.24-5.31-0.72-8.01-1.16c-0.34-0.15-0.68-0.19-0.97-0.24c-0.87-0.14-1.69-0.34-2.51-0.53
						c-5.31-1.11-10.57-2.51-15.74-4.25c-1.21-0.39-2.37-0.82-3.52-1.26l4.01-4.35l41.86-45l0.1-0.1c0.82,0.05,1.64,0.05,2.41,0.05
						h0.17c1.79,0,3.58,0.03,5.38-0.1h0.19c1.69-0.1,3.38-0.29,5.02-0.48c1.3-0.14,2.61-0.29,3.81-0.58
						c0.97-0.14,1.93-0.29,2.9-0.53c0.82-0.19,1.69-0.39,2.46-0.58c0.05,0.05,0.19,0,0.24-0.05c0.29-0.05,0.63-0.1,0.97-0.19
						c0.39-0.1,0.77-0.19,1.21-0.34c0.43-0.1,0.92-0.24,1.35-0.39c0.29-0.05,0.48-0.14,0.72-0.19c1.16-0.34,2.32-0.63,3.48-0.92
						c0.39-0.05,0.77-0.19,1.16-0.24c1.35-0.34,2.7-0.53,4.06-0.77c5.22-0.82,10.43-1.11,15.6-0.92c0.1-0.05,0.24-0.05,0.39,0
						c6.76,0.34,13.37,1.59,19.8,3.62c1.01,0.24,2.03,0.58,2.99,0.97c1.01,0.39,2.12,0.77,3.14,1.21c1.35,0.58,2.7,1.26,4.06,1.88
						c1.35,0.63,2.7,1.35,4.01,2.12c1.35,0.77,2.7,1.55,4.01,2.37c0.24,0.14,0.43,0.29,0.68,0.48c0.72,0.43,1.45,0.92,2.17,1.45
						c1.4,1.01,2.8,2.03,4.15,3.14c0.68,0.53,1.35,1.11,1.98,1.69c1.3,1.06,2.51,2.12,3.67,3.28c0.15,0.15,0.19,0.29,0.34,0.34
						c0,0,0.05,0.05,0.1,0.05c0,0.05,0.05,0.05,0.05,0.1c0.05,0,0.05,0.05,0.1,0.05C727.6,1097.32,727.6,1097.37,727.65,1097.46z"/>
				</g>
				<g>
					<linearGradient id="SVGID_3_" gradientUnits="userSpaceOnUse" x1="401.2052" y1="982.7098" x2="702.1984" y2="985.4215">
						<stop  offset="0" style="stop-color:#04E0FF"/>
						<stop  offset="1" style="stop-color:#7B05FE;stop-opacity:0"/>
					</linearGradient>
					<path class="st3" d="M597.52,1075.4l-34.96,37.56c-7.34-5.7-14.15-12.31-20.42-19.75c-1.98-2.46-4.01-4.97-5.84-7.53
						c-1.16-1.64-2.32-3.23-3.43-4.93c-14.73-22.26-23.32-49.01-24.53-76.63c-0.05-1.16-0.14-2.32-0.05-3.52
						c-0.1-1.01-0.1-2.12-0.1-3.23c0-1.06,0-2.17,0.1-3.19c0.24-13.81,2.22-27.14,5.89-39.88c0.1-0.05,0.1-0.1,0.1-0.24
						c1.06-3.67,2.32-7.29,3.67-10.86c3.86-10.33,8.79-20.04,14.87-29.11c3.91-5.94,8.3-11.54,13.04-16.8
						c24-26.41,55.09-40.17,86.57-41.28c34.62,1.16,68.8,14.87,95.22,41.28c0,0,0,0-0.05,0.05c0,0-0.05,0.05-0.1,0.1
						c-0.05,0.05-0.05,0.1-0.1,0.14c-13.42,14.63-31.43,22.89-49.78,22.89c-0.77,0-1.55,0-2.32-0.05c-5.6-0.19-11.2-1.26-16.71-3.04
						c-8.5-2.8-17.29-3.96-26.07-3.33c-8.69,0.48-17.24,2.7-25.35,6.42c-2.37,1.11-4.68,2.32-7,3.81
						c-8.88,5.26-17,12.65-23.71,22.26c-0.34,0.43-0.58,0.92-0.92,1.35c-3.33,4.88-6.04,10.09-8.3,15.69
						c-2.9,7.29-4.88,15.02-5.79,22.98c-0.39,3.62-0.63,7.29-0.63,10.82c0,17.96,5.17,35.05,14.63,49.3
						c3.38,5.12,7.44,9.9,12.02,14.2c1.11,1.11,2.32,2.12,3.48,3.19c0.72,0.58,1.35,1.01,1.98,1.59c0.68,0.53,1.3,1.01,2.03,1.5
						c0.68,0.48,1.35,1.01,2.03,1.45c0.72,0.53,1.45,0.97,2.12,1.45c0.34,0.19,0.68,0.39,0.97,0.58c0.19,0.1,0.48,0.24,0.68,0.39
						c0.19,0.1,0.34,0.19,0.53,0.34l-3.77,4.01V1075.4z"/>
					<linearGradient id="SVGID_4_" gradientUnits="userSpaceOnUse" x1="512.111" y1="1105.3939" x2="711.2485" y2="1107.188">
						<stop  offset="0" style="stop-color:#04E0FF"/>
						<stop  offset="1" style="stop-color:#7B05FE;stop-opacity:0"/>
					</linearGradient>
					<path class="st4" d="M727.65,1097.46v0.05h-0.05c-0.29,0.34-0.53,0.58-0.77,0.77c-0.1,0.14-0.14,0.19-0.29,0.34
						c-0.48,0.48-1.01,0.97-1.54,1.45c-1.26,1.16-2.51,2.32-3.77,3.43c-2.22,1.93-4.44,3.81-6.76,5.6
						c-1.16,0.92-2.27,1.74-3.43,2.66c-1.98,1.4-3.91,2.8-5.99,4.1c-1.5,1.01-3.04,1.98-4.59,2.9c-0.05,0.05-0.19,0.14-0.24,0.14
						c-1.98,1.21-4.01,2.32-6.04,3.38c-2.03,1.11-4.1,2.12-6.13,3.09c-1.06,0.53-2.08,0.97-3.14,1.45
						c-1.98,0.82-3.96,1.64-5.89,2.37c-1.01,0.53-2.08,0.92-3.14,1.21c-1.5,0.58-2.9,1.11-4.39,1.55c-0.82,0.29-1.69,0.53-2.51,0.77
						c-0.63,0.19-1.3,0.39-1.93,0.58c-3.24,0.92-6.42,1.74-9.66,2.41c-0.92,0.24-1.79,0.39-2.75,0.58
						c-0.72,0.19-1.45,0.29-2.12,0.39c-3.48,0.63-6.95,1.16-10.53,1.45c-1.21,0.15-2.41,0.29-3.67,0.34
						c-0.82,0.05-1.74,0.15-2.61,0.19c-1.3,0.05-2.66,0.05-3.96,0.14c-0.1,0.05-0.24,0.05-0.39,0c-2.32-0.1-4.64-0.29-6.95-0.53
						c-1.01-0.15-2.03-0.24-3.09-0.39c-1.01-0.14-1.98-0.24-2.99-0.43c-0.97-0.15-1.93-0.34-2.85-0.53c-0.19,0-0.39,0-0.58-0.05
						c-0.92-0.19-1.79-0.34-2.7-0.58c-1.01-0.19-2.08-0.39-3.04-0.68c-6.04-1.4-12.07-3.38-17.96-5.84
						c-1.98-0.82-4.06-1.74-6.04-2.7c-0.77-0.34-1.54-0.72-2.37-1.16l41.86-45l0.1-0.1l0.72-0.77c0.39,0.05,0.77,0.14,1.16,0.14
						c2.03,0.29,4.1,0.48,6.08,0.58h0.87c7.44,0.39,14.78-0.43,21.82-2.37c0.82-0.24,1.74-0.53,2.56-0.77
						c0.19-0.05,0.39-0.14,0.63-0.19c1.35-0.43,2.8-0.82,4.2-1.16c4.3-1.01,8.69-1.59,13.08-1.69c0.1-0.05,0.24-0.05,0.39,0
						c0.29-0.05,0.63-0.05,0.97-0.05h0.29c9.27,0,18.44,2.08,26.99,5.84c2.51,1.16,4.97,2.46,7.34,4.01
						c5.5,3.24,10.53,7.39,15.16,12.36c0,0.05,0.05,0.14,0.19,0.19c0.05,0.1,0.14,0.14,0.14,0.24c0.1,0.05,0.1,0.1,0.15,0.15
						C727.6,1097.32,727.6,1097.37,727.65,1097.46z"/>
				</g>
				<g>
					<linearGradient id="SVGID_5_" gradientUnits="userSpaceOnUse" x1="535.927" y1="973.5889" x2="697.1638" y2="1000.4617">
						<stop  offset="0" style="stop-color:#04E0FF"/>
						<stop  offset="1" style="stop-color:#7B05FE;stop-opacity:0"/>
					</linearGradient>
					<path class="st5" d="M597.52,1075.4l-34.96,37.56c-7.34-5.7-14.15-12.31-20.42-19.75c-1.98-2.46-4.01-4.97-5.84-7.53
						c-1.16-1.64-2.32-3.23-3.43-4.93c-14.73-22.26-23.32-49.01-24.53-76.63c-0.05-1.16-0.14-2.32-0.05-3.52
						c-0.1-1.01-0.1-2.12-0.1-3.23c0-1.06,0-2.17,0.1-3.19c0.24-13.81,2.22-27.14,5.89-39.88c0.1-0.05,0.1-0.1,0.1-0.24
						c1.06-3.67,2.32-7.29,3.67-10.86c3.86-10.33,8.79-20.04,14.87-29.11c3.91-5.94,8.3-11.54,13.04-16.8
						c24-26.41,55.09-40.17,86.57-41.28c34.62,1.16,68.8,14.87,95.22,41.28c0,0,0,0-0.05,0.05c0,0-0.05,0.05-0.1,0.1
						c-0.05,0.05-0.05,0.1-0.1,0.14c-13.42,14.63-31.43,22.89-49.78,22.89c-0.77,0-1.55,0-2.32-0.05c-5.6-0.19-11.2-1.26-16.71-3.04
						c-8.5-2.8-17.29-3.96-26.07-3.33c-8.69,0.48-17.24,2.7-25.35,6.42c-2.37,1.11-4.68,2.32-7,3.81
						c-8.88,5.26-17,12.65-23.71,22.26c-0.34,0.43-0.58,0.92-0.92,1.35c-3.33,4.88-6.04,10.09-8.3,15.69
						c-2.9,7.29-4.88,15.02-5.79,22.98c-0.39,3.62-0.63,7.29-0.63,10.82c0,17.96,5.17,35.05,14.63,49.3
						c3.38,5.12,7.44,9.9,12.02,14.2c1.11,1.11,2.32,2.12,3.48,3.19c0.72,0.58,1.35,1.01,1.98,1.59c0.68,0.53,1.3,1.01,2.03,1.5
						c0.68,0.48,1.35,1.01,2.03,1.45c0.72,0.53,1.45,0.97,2.12,1.45c0.34,0.19,0.68,0.39,0.97,0.58c0.19,0.1,0.48,0.24,0.68,0.39
						c0.19,0.1,0.34,0.19,0.53,0.34l-3.77,4.01V1075.4z"/>
					<linearGradient id="SVGID_6_" gradientUnits="userSpaceOnUse" x1="605.1218" y1="1098.4165" x2="715.3513" y2="1116.7881">
						<stop  offset="0" style="stop-color:#04E0FF"/>
						<stop  offset="1" style="stop-color:#7B05FE;stop-opacity:0"/>
					</linearGradient>
					<path class="st6" d="M727.65,1097.46v0.05h-0.05c-0.29,0.34-0.53,0.58-0.77,0.77c-0.1,0.14-0.14,0.19-0.29,0.34
						c-0.48,0.48-1.01,0.97-1.54,1.45c-1.26,1.16-2.51,2.32-3.77,3.43c-2.22,1.93-4.44,3.81-6.76,5.6
						c-1.16,0.92-2.27,1.74-3.43,2.66c-1.98,1.4-3.91,2.8-5.99,4.1c-1.5,1.01-3.04,1.98-4.59,2.9c-0.05,0.05-0.19,0.14-0.24,0.14
						c-1.98,1.21-4.01,2.32-6.04,3.38c-2.03,1.11-4.1,2.12-6.13,3.09c-1.06,0.53-2.08,0.97-3.14,1.45
						c-1.98,0.82-3.96,1.64-5.89,2.37c-1.01,0.53-2.08,0.92-3.14,1.21c-1.5,0.58-2.9,1.11-4.39,1.55c-0.82,0.29-1.69,0.53-2.51,0.77
						c-0.63,0.19-1.3,0.39-1.93,0.58c-3.24,0.92-6.42,1.74-9.66,2.41c-0.92,0.24-1.79,0.39-2.75,0.58
						c-0.72,0.19-1.45,0.29-2.12,0.39c-3.48,0.63-6.95,1.16-10.53,1.45c-1.21,0.15-2.41,0.29-3.67,0.34
						c-0.82,0.05-1.74,0.15-2.61,0.19c-1.3,0.05-2.66,0.05-3.96,0.14c-0.1,0.05-0.24,0.05-0.39,0c-2.32-0.1-4.64-0.29-6.95-0.53
						c-1.01-0.15-2.03-0.24-3.09-0.39c-1.01-0.14-1.98-0.24-2.99-0.43c-0.97-0.15-1.93-0.34-2.85-0.53c-0.19,0-0.39,0-0.58-0.05
						c-0.92-0.19-1.79-0.34-2.7-0.58c-1.01-0.19-2.08-0.39-3.04-0.68c-6.04-1.4-12.07-3.38-17.96-5.84
						c-1.98-0.82-4.06-1.74-6.04-2.7c-0.77-0.34-1.54-0.72-2.37-1.16l41.86-45l0.1-0.1l0.72-0.77c0.39,0.05,0.77,0.14,1.16,0.14
						c2.03,0.29,4.1,0.48,6.08,0.58h0.87c7.44,0.39,14.78-0.43,21.82-2.37c0.82-0.24,1.74-0.53,2.56-0.77
						c0.19-0.05,0.39-0.14,0.63-0.19c1.35-0.43,2.8-0.82,4.2-1.16c4.3-1.01,8.69-1.59,13.08-1.69c0.1-0.05,0.24-0.05,0.39,0
						c0.29-0.05,0.63-0.05,0.97-0.05h0.29c9.27,0,18.44,2.08,26.99,5.84c2.51,1.16,4.97,2.46,7.34,4.01
						c5.5,3.24,10.53,7.39,15.16,12.36c0,0.05,0.05,0.14,0.19,0.19c0.05,0.1,0.14,0.14,0.14,0.24c0.1,0.05,0.1,0.1,0.15,0.15
						C727.6,1097.32,727.6,1097.37,727.65,1097.46z"/>
				</g>
				<linearGradient id="SVGID_7_" gradientUnits="userSpaceOnUse" x1="462.9698" y1="926.452" x2="645.1459" y2="926.8307">
					<stop  offset="0" style="stop-color:#04E0FF"/>
					<stop  offset="1" style="stop-color:#7B05FE;stop-opacity:0"/>
				</linearGradient>
				<path class="st7" d="M727.64,897.27c0,0,0,0-0.06,0.06c-14.1,14.1-32.9,22.34-52.28,23.05c-0.9,0.06-1.8,0.06-2.7,0.06
					c-7.02,0-14.1-1.03-20.99-3.09c-6.18-1.87-12.62-2.96-19.06-3.35c-12.68-0.77-25.63,1.42-37.54,6.44
					c-12.75,5.34-24.53,14.04-33.8,26.08c-0.32,0.45-0.64,0.9-0.97,1.35c-3.67,4.89-6.7,10.11-9.14,15.71
					c-10.43,14.81-25.56,25.56-42.82,30.58c-7.15,2.12-14.62,3.22-22.28,3.22c0-14.87,2.32-29.36,6.7-43.07
					c0-0.06,0.06-0.13,0.06-0.26c1.16-3.67,2.51-7.28,3.99-10.88c7.02-16.93,17.39-32.52,30.71-45.91
					c28.85-28.85,67.09-42.62,104.95-41.27C667.06,857.15,701.25,870.87,727.64,897.27z"/>
				<linearGradient id="SVGID_8_" gradientUnits="userSpaceOnUse" x1="475.1522" y1="1058.4258" x2="559.3116" y2="1058.6008">
					<stop  offset="0" style="stop-color:#04E0FF"/>
					<stop  offset="1" style="stop-color:#7B05FE;stop-opacity:0"/>
				</linearGradient>
				<path class="st8" d="M597.52,1075.35v0.05l-34.96,37.56l-6.23,6.71c-1.06-0.58-2.12-1.26-3.19-1.88
					c-1.79-1.11-3.62-2.27-5.36-3.48c-1.11-0.72-2.17-1.45-3.23-2.27c-3.19-2.22-6.28-4.68-9.32-7.39
					c-2.61-2.17-5.26-4.64-7.77-7.15c-1.3-1.3-2.56-2.66-3.72-4.01c-0.19-0.1-0.34-0.24-0.39-0.39c-1.16-1.21-2.27-2.37-3.24-3.67
					c-1.11-1.21-2.12-2.51-3.14-3.77c-1.11-1.35-2.08-2.7-3.24-4.06c-0.92-1.26-1.79-2.51-2.66-3.81c-0.14-0.19-0.24-0.34-0.39-0.53
					c-0.29-0.34-0.53-0.63-0.68-0.97c-0.1-0.1-0.19-0.24-0.29-0.39v-0.05c-0.43-0.58-0.82-1.26-1.21-1.88
					c-0.58-0.77-1.11-1.59-1.55-2.41c-0.1-0.15-0.19-0.34-0.34-0.48c-0.19-0.34-0.43-0.63-0.63-1.01c0,0,0,0,0-0.05
					c-0.39-0.63-0.77-1.3-1.16-1.98c-0.77-1.3-1.55-2.66-2.27-3.96c-0.54-1.01-0.99-2.09-1.5-3.13c-0.88-1.72-1.71-3.46-2.5-5.22
					c-0.53-1.16-1.06-2.37-1.55-3.57c-0.1-0.1-0.1-0.19-0.14-0.29c-0.05-0.1-0.1-0.19-0.14-0.29c-0.29-0.72-0.58-1.4-0.87-2.12
					c-0.24-0.68-0.48-1.4-0.72-2.12c-0.14-0.34-0.34-0.68-0.43-1.06c-0.19-0.34-0.29-0.72-0.43-1.11c-0.05-0.14-0.1-0.24-0.1-0.39
					c-0.43-0.97-0.77-2.03-1.01-3.04c-0.05-0.15-0.1-0.24-0.14-0.39c-2.8-8.3-4.73-17-5.79-25.83c-0.1-0.05-0.1-0.19-0.1-0.24
					c-0.05-0.05-0.05-0.14,0-0.19v-0.05c-0.24-1.74-0.43-3.57-0.58-5.36c-0.19-1.74-0.29-3.52-0.39-5.26
					c-0.1-2.32-0.19-4.73-0.19-7.05c7.68,0,15.16,1.11,22.31,3.23c17.24,5.02,32.35,15.79,42.78,30.66
					c0.77,1.64,1.54,3.33,2.46,4.93c0.82,1.69,1.79,3.38,2.85,4.97c1.01,1.83,2.17,3.48,3.48,5.17c0.1,0.19,0.24,0.39,0.39,0.58
					c0.34,0.53,0.63,0.92,0.97,1.35c0.58,0.77,1.16,1.5,1.79,2.17c0.87,1.06,1.69,2.08,2.66,3.04c3.52,4.01,7.39,7.53,11.54,10.57
					c1.4,1.16,2.8,2.17,4.35,3.09c0.72,0.58,1.5,1.01,2.27,1.45c0.19,0.19,0.43,0.34,0.72,0.48c0.77,0.43,1.54,0.87,2.32,1.26
					c0.39,0.29,0.77,0.53,1.16,0.68c1.21,0.68,2.51,1.35,3.77,1.93c0.58,0.29,1.26,0.58,1.83,0.82c0.43,0.24,0.87,0.43,1.35,0.63
					c0.14,0.05,0.24,0.1,0.39,0.14c0.19,0.1,0.39,0.19,0.63,0.24C596.46,1075.01,596.99,1075.2,597.52,1075.35z"/>
				<linearGradient id="SVGID_9_" gradientUnits="userSpaceOnUse" x1="564.5791" y1="1106.4589" x2="676.6498" y2="1106.6919">
					<stop  offset="0" style="stop-color:#04E0FF"/>
					<stop  offset="1" style="stop-color:#7B05FE;stop-opacity:0"/>
				</linearGradient>
				<path class="st9" d="M727.6,1097.51c-0.29,0.34-0.53,0.58-0.77,0.77c-0.1,0.14-0.14,0.19-0.29,0.34
					c-0.48,0.48-1.01,0.97-1.54,1.45c-1.26,1.16-2.51,2.32-3.77,3.43c-2.22,1.93-4.44,3.81-6.76,5.6c-1.16,0.92-2.27,1.74-3.43,2.66
					c-1.98,1.4-3.91,2.8-5.99,4.1c-1.5,1.01-3.04,1.98-4.59,2.9c-0.05,0.05-0.19,0.14-0.24,0.14c-1.98,1.21-4.01,2.32-6.04,3.38
					c-2.03,1.11-4.1,2.12-6.13,3.09c-1.06,0.53-2.08,0.97-3.14,1.45c-1.98,0.82-3.96,1.64-5.89,2.37c-1.01,0.53-2.08,0.92-3.14,1.21
					c-1.5,0.58-2.9,1.11-4.39,1.55c-0.82,0.29-1.69,0.53-2.51,0.77c-0.63,0.19-1.3,0.39-1.93,0.58c-3.24,0.92-6.42,1.74-9.66,2.41
					c-0.92,0.24-1.79,0.39-2.75,0.58c-0.72,0.19-1.45,0.29-2.12,0.39c-3.48,0.63-6.95,1.16-10.53,1.45
					c-1.21,0.15-2.41,0.29-3.67,0.34c-0.82,0.05-1.74,0.15-2.61,0.19c-1.3,0.05-2.66,0.05-3.96,0.14c-0.1,0.05-0.24,0.05-0.39,0
					c-1.26,0.05-2.61,0.1-3.96,0.1c-3.62,0-7.15-0.1-10.77-0.43c-0.72,0-1.5-0.05-2.27-0.19c-1.59-0.15-3.19-0.34-4.83-0.58
					c-2.7-0.24-5.31-0.72-8.01-1.16c-1.16-0.19-2.32-0.43-3.48-0.77c-5.31-1.11-10.57-2.51-15.74-4.25
					c-1.21-0.39-2.37-0.82-3.52-1.26l4.01-4.35l41.86-45c2.7,0.1,5.36,0.05,8.06-0.15h0.87c1.45-0.1,2.95-0.24,4.35-0.48
					c1.3-0.14,2.61-0.29,3.81-0.58c0.97-0.14,1.93-0.29,2.9-0.53c0.82-0.15,1.59-0.34,2.46-0.58c0.05,0.05,0.19,0,0.24-0.05
					c0.29-0.05,0.63-0.1,0.97-0.19c0.39-0.1,0.77-0.19,1.21-0.34c0.43-0.1,0.92-0.24,1.35-0.39c0.29-0.05,0.48-0.14,0.72-0.19
					c1.16-0.34,2.32-0.63,3.48-0.92c0.39-0.05,0.77-0.19,1.16-0.24c1.35-0.34,2.7-0.53,4.06-0.77c4.06-0.77,8.16-1.11,12.31-1.11
					c1.55,0,3.09,0.1,4.64,0.14h0.29c6.32,0.43,12.55,1.64,18.54,3.67c1.01,0.24,2.03,0.58,2.99,0.97c1.01,0.39,2.12,0.77,3.14,1.21
					c1.35,0.58,2.7,1.26,4.06,1.88c1.35,0.63,2.7,1.35,4.01,2.12c1.35,0.77,2.7,1.55,4.01,2.37c0.24,0.14,0.43,0.29,0.68,0.48
					c0.72,0.43,1.45,0.92,2.17,1.45c1.4,0.97,2.8,2.03,4.15,3.14c0.68,0.53,1.35,1.11,1.98,1.69c1.3,1.06,2.51,2.12,3.67,3.28
					c0.15,0.15,0.19,0.29,0.34,0.34c0,0,0.05,0.05,0.1,0.05c0,0.05,0.05,0.05,0.05,0.1C727.45,1097.37,727.5,1097.46,727.6,1097.51z
					"/>
				<linearGradient id="SVGID_10_" gradientUnits="userSpaceOnUse" x1="600.6143" y1="915.6003" x2="804.5681" y2="996.2728">
					<stop  offset="0" style="stop-color:#04E0FF"/>
					<stop  offset="1" style="stop-color:#7B05FE;stop-opacity:0"/>
				</linearGradient>
				<path class="st10" d="M727.64,897.27c0,0,0,0-0.06,0.06c0,0.06-0.13,0.13-0.19,0.26c-3.09,3.93-37.47,46.68-78.42,50.67
					c-24.02,2.38-33.8-12.23-48.81-24.02c-1.67-1.35-3.35-2.58-5.15-3.8c-11.27-7.53-25.95-12.68-50.28-9.14
					c-4.25,0.64-8.24,1.55-11.91,2.77c-22.08,7.08-33.8,23.57-40.05,39.98c1.16-3.67,2.51-7.28,3.99-10.88
					c7.02-16.93,17.39-32.52,30.71-45.91c28.85-28.85,67.09-42.62,104.95-41.27C667.06,857.15,701.25,870.87,727.64,897.27z"/>
				<linearGradient id="SVGID_11_" gradientUnits="userSpaceOnUse" x1="538.8307" y1="1071.8247" x2="645.842" y2="1004.2701">
					<stop  offset="0" style="stop-color:#04E0FF"/>
					<stop  offset="1" style="stop-color:#7B05FE;stop-opacity:0"/>
				</linearGradient>
				<path class="st11" d="M597.52,1075.4l-34.96,37.56l-6.23,6.71c-1.06-0.58-2.12-1.26-3.19-1.88c-1.79-1.11-3.62-2.27-5.36-3.48
					c-1.11-0.72-2.17-1.45-3.23-2.27c-3.19-2.22-6.28-4.68-9.32-7.39c-2.61-2.17-5.26-4.64-7.77-7.15c-1.3-1.3-2.56-2.66-3.72-4.01
					c-0.19-0.1-0.34-0.24-0.39-0.39c-1.16-1.21-2.27-2.37-3.24-3.67c-1.11-1.21-2.12-2.51-3.14-3.77c-1.11-1.35-2.08-2.7-3.24-4.06
					c-0.92-1.26-1.79-2.51-2.66-3.81c-0.14-0.19-0.24-0.34-0.39-0.53c-0.1-0.19-0.19-0.39-0.29-0.58c-0.14-0.15-0.24-0.24-0.39-0.39
					c-0.1-0.1-0.19-0.24-0.29-0.39v-0.05c-0.43-0.58-0.82-1.26-1.21-1.88c-0.39-0.63-0.77-1.3-1.16-1.93
					c-0.15-0.14-0.29-0.34-0.39-0.48c-0.1-0.15-0.19-0.34-0.34-0.48c-0.19-0.34-0.43-0.63-0.63-1.01c0,0,0,0,0-0.05
					c-0.39-0.63-0.77-1.3-1.16-1.98c-0.34-0.63-0.68-1.3-1.01-1.98c-0.48-0.63-0.77-1.26-1.26-1.98c-0.54-1.01-0.99-2.09-1.5-3.13
					c-0.88-1.72-1.71-3.46-2.5-5.22c-0.53-1.16-1.06-2.37-1.55-3.57c-0.1-0.1-0.1-0.19-0.14-0.29c-0.05-0.1-0.1-0.19-0.14-0.29
					c-0.29-0.72-0.58-1.4-0.87-2.12c-0.43-1.06-0.82-2.12-1.16-3.19c-0.19-0.34-0.29-0.72-0.43-1.11c-0.05-0.14-0.1-0.24-0.1-0.39
					c-0.43-0.97-0.77-2.03-1.01-3.04c0.05,0.14,0.1,0.24,0.14,0.39c6.37,15.98,18.06,31.77,39.54,38.63
					c3.67,1.16,7.58,2.12,11.83,2.7c24.29,3.57,38.96-1.59,50.26-9.08c0-0.05,0.05-0.05,0.05-0.05c1.79-1.21,3.48-2.46,5.07-3.72
					c3.14-2.46,6.08-5.07,8.93-7.58l-7.73,8.31l-3.77,4.01V1075.4z"/>
				<linearGradient id="SVGID_12_" gradientUnits="userSpaceOnUse" x1="621.6141" y1="1118.8186" x2="790.3812" y2="1012.2786">
					<stop  offset="0" style="stop-color:#04E0FF"/>
					<stop  offset="1" style="stop-color:#7B05FE;stop-opacity:0"/>
				</linearGradient>
				<path class="st12" d="M727.6,1097.51c-0.29,0.34-0.53,0.58-0.77,0.77c-0.1,0.14-0.14,0.19-0.29,0.34
					c-0.48,0.48-1.01,0.97-1.54,1.45c-1.26,1.16-2.51,2.32-3.77,3.43c-2.22,1.93-4.44,3.81-6.76,5.6c-1.16,0.92-2.27,1.74-3.43,2.66
					c-1.98,1.4-3.91,2.8-5.99,4.1c-1.5,1.01-3.04,1.98-4.59,2.9c-0.05,0.05-0.19,0.14-0.24,0.14c-1.98,1.21-4.01,2.32-6.04,3.38
					c-2.03,1.11-4.1,2.12-6.13,3.09c-1.06,0.53-2.08,0.97-3.14,1.45c-1.98,0.82-3.96,1.64-5.89,2.37c-1.01,0.53-2.08,0.92-3.14,1.21
					c-1.5,0.58-2.9,1.11-4.39,1.55c-0.82,0.29-1.69,0.53-2.51,0.77c-0.63,0.19-1.3,0.39-1.93,0.58c-3.24,0.92-6.42,1.74-9.66,2.41
					c-0.92,0.24-1.79,0.39-2.75,0.58c-0.72,0.19-1.45,0.29-2.12,0.39c-3.48,0.63-6.95,1.16-10.53,1.45
					c-1.21,0.15-2.41,0.29-3.67,0.34c-0.82,0.05-1.74,0.15-2.61,0.19c-1.3,0.05-2.66,0.05-3.96,0.14c-0.1,0.05-0.24,0.05-0.39,0
					c-1.26,0.05-2.61,0.1-3.96,0.1c-3.62,0-7.15-0.1-10.77-0.43c-0.72,0-1.5-0.05-2.27-0.19c-1.59-0.15-3.19-0.34-4.83-0.58
					c-2.7-0.24-5.31-0.72-8.01-1.16c-1.16-0.19-2.32-0.43-3.48-0.77c-5.31-1.11-10.57-2.51-15.74-4.25
					c-1.21-0.39-2.37-0.82-3.52-1.26l4.01-4.35l41.86-45l0.1-0.1l0.72-0.77l30.23-32.49c36.65,7.34,66.63,43.31,71.32,49.2
					c0,0.05,0.05,0.14,0.19,0.19c0,0.05,0.05,0.14,0.05,0.19c0,0,0.05,0.05,0.1,0.05c0,0.05,0.05,0.05,0.05,0.1
					C727.45,1097.37,727.5,1097.46,727.6,1097.51z"/>
			</g>
			<g>
				<linearGradient id="SVGID_13_" gradientUnits="userSpaceOnUse" x1="454.6556" y1="1056.1962" x2="568.7632" y2="1094.8577">
					<stop  offset="0" style="stop-color:#04E0FF"/>
					<stop  offset="1" style="stop-color:#7B05FE;stop-opacity:0"/>
				</linearGradient>
				<path class="st13" d="M483.04,1080.37l17.82,39.93c-31.24-31.87-48.19-72.62-50.89-114.14l17.96,40.32l0.1,0.24
					C471.74,1058.35,476.76,1069.65,483.04,1080.37z"/>
				<linearGradient id="SVGID_14_" gradientUnits="userSpaceOnUse" x1="611.8954" y1="1121.7532" x2="856.9514" y2="1204.782">
					<stop  offset="0" style="stop-color:#04E0FF"/>
					<stop  offset="1" style="stop-color:#7B05FE;stop-opacity:0"/>
				</linearGradient>
				<path class="st14" d="M757.2,1121.8c-34.04,34.04-79.33,52.82-127.47,52.82c-26.89,0-52.87-5.84-76.48-16.95l7.39-7.92
					c21.49,9.61,44.9,14.63,69.09,14.63c45.44,0,88.12-17.67,120.23-49.83c2.03-1.98,5.26-1.98,7.24,0
					C759.18,1116.58,759.18,1119.82,757.2,1121.8z"/>
				<linearGradient id="SVGID_15_" gradientUnits="userSpaceOnUse" x1="542.6682" y1="887.6225" x2="896.3131" y2="1007.4431">
					<stop  offset="0" style="stop-color:#04E0FF"/>
					<stop  offset="1" style="stop-color:#7B05FE;stop-opacity:0"/>
				</linearGradient>
				<path class="st15" d="M461.12,973.18l-7.53-16.9c7.05-32.78,23.27-63.93,48.72-89.37c34.04-34.04,79.28-52.82,127.42-52.82
					c48.14,0,93.43,18.78,127.47,52.82c1.98,1.98,1.98,5.21,0,7.24c-1.98,1.98-5.22,1.98-7.24,0
					c-32.11-32.11-74.79-49.83-120.23-49.83c-45.39,0-88.07,17.72-120.23,49.83C481.79,901.86,465.66,936.92,461.12,973.18z"/>
			</g>
		</g>
	</g>
	<g>
		<path class="st16" d="M839.71,1056.01c-9.99,11.2-22.6,16.8-37.81,16.8c-15.07,0-27.38-5.12-36.89-15.35
			c-9.56-10.28-14.34-23.32-14.34-39.21c0-15.93,4.78-29.02,14.34-39.3c9.51-10.33,21.82-15.45,36.89-15.45
			c14.39,0,26.6,5.21,36.74,15.69l8.64-9.71c-12.36-12.36-27.47-18.54-45.39-18.54c-18.83,0-34.33,6.37-46.45,19.07
			s-18.2,28.78-18.2,48.24c0,19.41,6.08,35.44,18.2,48.09c12.12,12.65,27.62,19.02,46.45,19.02c18.98,0,34.38-6.42,46.26-19.27
			L839.71,1056.01z"/>
		<path class="st16" d="M931.84,1003.14c-5.99-6.76-14.2-10.19-24.67-10.19c-11.39,0-21,4.39-28.78,13.09v-57.22H865.5v134.23h12.89
			v-62.33c7.77-10.24,16.46-15.35,26.12-15.35c7.1,0,12.75,2.32,16.95,7.05c4.25,4.68,6.37,10.86,6.37,18.54v52.1h12.89v-52.82
			C940.72,1018.92,937.78,1009.9,931.84,1003.14z"/>
		<path class="st16" d="M1029.76,994.73l-0.39,11.64c-7.05-8.93-17.04-13.42-29.98-13.42c-12.02,0-21.87,4.35-29.5,12.99
			c-7.68,8.69-11.49,19.65-11.49,32.98c0,13.42,3.81,24.43,11.49,33.03c7.63,8.59,17.48,12.89,29.5,12.89
			c13.04,0,23.03-4.54,29.98-13.62l0.39,11.83h11.83v-88.31H1029.76z M1028.84,1057.26c-7.05,10.72-16.22,16.08-27.52,16.08
			c-8.74,0-15.88-3.24-21.53-9.66c-5.7-6.37-8.5-14.68-8.5-24.77c0-10.04,2.8-18.25,8.5-24.67c5.65-6.42,12.8-9.61,21.53-9.61
			c11.15,0,20.38,5.31,27.52,15.89V1057.26z"/>
		<path class="st16" d="M1119.13,1070.15c-3.19,1.88-7.63,2.8-13.28,2.8c-5.07,0-9.13-1.55-12.17-4.64
			c-3.09-3.14-4.59-7.53-4.59-13.18v-49.1h29.12v-11.3h-29.12V964.7h-12.75v30.03h-18.01v11.3h18.01v49.3
			c0,9.51,2.56,16.8,7.73,21.87c5.12,5.07,12.07,7.63,20.91,7.63c7.29,0,13.37-1.55,18.2-4.64L1119.13,1070.15z"/>
		<path class="st16" d="M1206.38,1014.68c4.59-1.88,8.5-5.21,11.83-10.04c3.28-4.83,4.92-10.72,4.92-17.67
			c0-10.48-3.43-18.73-10.24-24.72c-6.86-5.99-16.8-9.03-29.84-9.03h-43.65v129.84h52.29c12.84,0,23.13-3.14,30.8-9.46
			c7.73-6.28,11.59-15.02,11.59-26.22C1234.1,1029.84,1224.83,1018.92,1206.38,1014.68z M1152.5,965.62h29.12
			c9.46,0,16.51,1.93,21.2,5.89c4.73,3.96,7.1,9.51,7.1,16.71c0,6.71-2.32,12.17-6.9,16.32c-4.59,4.2-11.01,6.28-19.27,6.28h-31.24
			V965.62z M1212.71,1064.6c-5.26,4.06-12.7,6.08-22.26,6.08h-37.95v-47.85h35.49c21.78,0,32.69,7.97,32.69,24
			C1220.67,1054.61,1218.02,1060.55,1212.71,1064.6z"/>
		<path class="st16" d="M1266.78,1007.29l-0.58-12.55h-11.83v88.31h12.89v-61.47c6.95-10.48,15.26-15.74,24.92-15.74h1.25v-12.89
			C1281.66,992.95,1272.77,997.73,1266.78,1007.29z"/>
		<path class="st16" d="M1323.47,959.49c-1.79-1.83-4.01-2.7-6.71-2.7c-2.61,0-4.78,0.87-6.57,2.61c-1.74,1.79-2.66,4.01-2.66,6.71
			c0,2.61,0.87,4.78,2.56,6.57c1.74,1.74,3.96,2.66,6.66,2.66c2.7,0,4.93-0.92,6.71-2.66c1.74-1.79,2.66-3.96,2.66-6.57
			C1326.13,963.54,1325.21,961.32,1323.47,959.49z M1310.19,994.73v88.31h12.89v-88.31H1310.19z"/>
		<path class="st16" d="M1413.86,948.82v56.88c-7.05-8.5-16.9-12.75-29.45-12.75c-12.02,0-21.87,4.35-29.5,12.99
			c-7.68,8.69-11.49,19.65-11.49,32.98c0,13.42,3.81,24.43,11.49,33.03c7.63,8.59,17.48,12.89,29.5,12.89
			c13.04,0,23.03-4.54,29.98-13.62l0.39,11.83h11.83V948.82H1413.86z M1413.86,1057.26c-7.05,10.72-16.22,16.08-27.52,16.08
			c-8.74,0-15.89-3.24-21.53-9.66c-5.65-6.37-8.5-14.68-8.5-24.77c0-10.04,2.85-18.25,8.5-24.67c5.65-6.42,12.8-9.61,21.53-9.61
			c11.15,0,20.38,5.31,27.52,15.89V1057.26z"/>
		<path class="st16" d="M1518.1,994.73l-0.39,11.64c-7.05-8.93-17.04-13.42-30.03-13.42c-11.97,0-21.82,4.35-29.45,12.99
			c-7.68,8.69-11.49,19.65-11.49,32.98c0,13.42,3.81,24.43,11.49,33.03c7.63,8.59,17.48,12.89,29.45,12.89
			c12.6,0,22.45-4.25,29.5-12.75v9.71c0,9.8-2.8,17.58-8.45,23.42c-5.65,5.84-13.28,8.74-22.79,8.74
			c-12.02,0-22.16-5.02-30.37-15.02l-8.5,8.3c9.8,12.12,22.79,18.2,39.01,18.2c13.33,0,23.95-3.96,31.92-11.83
			c7.92-7.92,11.93-18.64,11.93-32.16v-86.72H1518.1z M1517.18,1057.26c-7.05,10.72-16.22,16.08-27.52,16.08
			c-8.74,0-15.93-3.24-21.58-9.66c-5.65-6.37-8.45-14.68-8.45-24.77c0-10.04,2.8-18.25,8.45-24.67c5.65-6.42,12.84-9.61,21.58-9.61
			c11.15,0,20.38,5.31,27.52,15.89V1057.26z"/>
		<path class="st16" d="M1631.67,1038.19c0-13.08-3.53-23.9-10.53-32.4c-7-8.55-16.75-12.84-29.21-12.84
			c-12.26,0-22.26,4.39-30.03,13.09c-7.77,8.74-11.68,19.75-11.68,33.03c0,13.57,3.91,24.58,11.78,33.03
			c7.82,8.5,18.49,12.75,32.01,12.75c15.11,0,26.99-5.36,35.68-16.08l-8.98-7.63c-6.13,8.4-15.02,12.55-26.7,12.55
			c-9.66,0-17.14-2.66-22.5-8.02c-5.36-5.36-8.16-12.75-8.4-22.16h68.56V1038.19z M1563.1,1032.88c0.48-8.59,3.33-15.5,8.59-20.76
			c5.22-5.21,11.97-7.82,20.23-7.82c8.11,0,14.58,2.61,19.41,7.82c4.83,5.26,7.34,12.17,7.58,20.76H1563.1z"/>
	</g>
	<g>
		<linearGradient id="SVGID_16_" gradientUnits="userSpaceOnUse" x1="408.9791" y1="1026.2192" x2="794.2262" y2="1026.2192">
			<stop  offset="0" style="stop-color:#04E0FF"/>
			<stop  offset="1" style="stop-color:#7B05FE;stop-opacity:0"/>
		</linearGradient>
		<polygon class="st17" points="531.24,1170.69 408.98,896.42 417.33,892.69 533.97,1154.33 787.53,881.75 794.23,887.98 		"/>
	</g>
	<g>
		<circle class="st16" cx="788.73" cy="885.4" r="18.83"/>
		<path d="M788.73,908.81c-12.91,0-23.41-10.5-23.41-23.41S775.82,862,788.73,862c12.91,0,23.41,10.5,23.41,23.41
			S801.63,908.81,788.73,908.81z M788.73,871.15c-7.86,0-14.26,6.4-14.26,14.26s6.4,14.26,14.26,14.26c7.86,0,14.26-6.4,14.26-14.26
			S796.59,871.15,788.73,871.15z"/>
	</g>
	<circle class="st16" cx="533.15" cy="1162.51" r="18.83"/>
	<linearGradient id="SVGID_17_" gradientUnits="userSpaceOnUse" x1="509.7385" y1="1162.5089" x2="556.5511" y2="1162.5089">
		<stop  offset="0" style="stop-color:#04E0FF"/>
		<stop  offset="1" style="stop-color:#7B05FE;stop-opacity:0"/>
	</linearGradient>
	<path class="st18" d="M533.14,1185.92c-12.91,0-23.41-10.5-23.41-23.41c0-12.91,10.5-23.41,23.41-23.41
		c12.91,0,23.41,10.5,23.41,23.41C556.55,1175.41,546.05,1185.92,533.14,1185.92z M533.14,1148.25c-7.86,0-14.26,6.4-14.26,14.26
		c0,7.86,6.4,14.26,14.26,14.26c7.86,0,14.26-6.4,14.26-14.26C547.4,1154.65,541.01,1148.25,533.14,1148.25z"/>
	<g>
		<circle class="st16" cx="410.47" cy="891.32" r="18.83"/>
		<path d="M410.47,914.73c-12.91,0-23.41-10.5-23.41-23.41s10.5-23.41,23.41-23.41s23.41,10.5,23.41,23.41
			S423.37,914.73,410.47,914.73z M410.47,877.06c-7.86,0-14.26,6.4-14.26,14.26s6.4,14.26,14.26,14.26s14.26-6.4,14.26-14.26
			S418.33,877.06,410.47,877.06z"/>
	</g>
	<linearGradient id="SVGID_18_" gradientUnits="userSpaceOnUse" x1="368.3348" y1="901.3648" x2="440.1627" y2="901.3648">
		<stop  offset="0" style="stop-color:#04E0FF"/>
		<stop  offset="1" style="stop-color:#7B05FE"/>
	</linearGradient>
	<path class="st19" d="M419.25,867.42h-29.99c-11.55,0-20.92,9.36-20.92,20.92v9.47c0,11.55,9.36,20.92,20.92,20.92h27.92
		l13.12,16.58l-0.59-19.4c6.24-3.62,10.45-10.36,10.45-18.09v-9.47C440.16,876.79,430.8,867.42,419.25,867.42z"/>
	<linearGradient id="SVGID_19_" gradientUnits="userSpaceOnUse" x1="761.9897" y1="894.5483" x2="833.8176" y2="894.5483">
		<stop  offset="0" style="stop-color:#04E0FF"/>
		<stop  offset="1" style="stop-color:#7B05FE"/>
	</linearGradient>
	<path class="st20" d="M782.91,860.61h29.99c11.55,0,20.92,9.36,20.92,20.92V891c0,11.55-9.36,20.92-20.92,20.92h-27.92
		l-13.12,16.58l0.59-19.4c-6.24-3.62-10.45-10.36-10.45-18.09v-9.47C761.99,869.97,771.35,860.61,782.91,860.61z"/>
</g>
</svg>
